<?xml version="1.0" encoding="UTF-8"?>
<svg version="1.1" xmlns="http://www.w3.org/2000/svg" width="161" height="164">
<path d="M0 0 C1.16466797 -0.020625 2.32933594 -0.04125 3.52929688 -0.0625 C14.49749974 -0.11138336 24.26554232 1.82149747 34 6.9375 C35.01332397 7.45969116 35.01332397 7.45969116 36.04711914 7.99243164 C57.94060191 19.56228522 70.85929008 37.50154242 79.03515625 60.3125 C85.01622743 81.23233966 81.18346775 103.84139977 71 122.62890625 C60.24590163 141.76108217 43.39032466 155.53824908 22.29443359 162.06811523 C15.01976125 164.06684066 8.21540175 164.76177105 0.6875 164.6875 C-0.40006592 164.67992676 -1.48763184 164.67235352 -2.6081543 164.66455078 C-24.89173947 164.2120419 -43.1366723 154.82909307 -58.70947266 139.08642578 C-73.16243918 123.81135525 -80.46944806 104.08312804 -80.4375 83.1875 C-80.43588867 82.08784912 -80.43427734 80.98819824 -80.43261719 79.85522461 C-80.29645744 70.74653822 -78.99217122 62.87511597 -76.0625 54.25 C-75.79695313 53.37085938 -75.53140625 52.49171875 -75.2578125 51.5859375 C-69.08043997 33.52447686 -53.60633342 17.20223801 -37.01025391 8.20361328 C-24.95648894 2.30213347 -13.32978457 0.05767349 0 0 Z " fill="#F7B926" transform="translate(80.0625,-0.25)"/>
<path d="M0 0 C0.763125 0.0825 1.52625 0.165 2.3125 0.25 C5.43818346 12.49887122 7.60309738 24.72733084 9.3125 37.25 C15.17470339 34.38346002 20.80073104 31.28624751 26.375 27.8984375 C29.73673334 25.9200723 31.29913114 25.25 35.3125 25.25 C33.99446508 29.65656451 32.25454143 33.31991867 29.875 37.25 C27.50590984 41.17972191 25.32073292 45.12298923 23.3125 49.25 C24.49585937 49.50394531 25.67921875 49.75789063 26.8984375 50.01953125 C41.17610692 53.11181837 41.17610692 53.11181837 47.3125 54.75 C48.055 54.9459375 48.7975 55.141875 49.5625 55.34375 C51.86676677 56.537031 52.38123747 57.88304106 53.3125 60.25 C49.57469961 63.77622678 45.36992349 64.38598223 40.5 65.375 C39.32727539 65.62830078 39.32727539 65.62830078 38.13085938 65.88671875 C33.54154736 66.86055772 28.96395937 67.64139784 24.3125 68.25 C24.82162014 73.05027558 27.1390249 76.37635805 29.8125 80.25 C34.80734536 87.4871134 34.80734536 87.4871134 35.3125 92.25 C32.65674194 93.28894239 31.60929023 93.37545245 28.9375 92.24609375 C28.07125 91.73175781 27.205 91.21742187 26.3125 90.6875 C20.42521314 87.29496088 14.40759095 84.24967827 8.3125 81.25 C8.20292969 82.23097656 8.09335938 83.21195312 7.98046875 84.22265625 C7.15331518 91.37258238 6.20583205 98.48724591 4.875 105.5625 C4.64941406 106.77550781 4.42382812 107.98851562 4.19140625 109.23828125 C2.88300017 113.72175275 2.88300017 113.72175275 0.3125 115.25 C-2.375 114.9375 -2.375 114.9375 -4.6875 114.25 C-7.24282411 103.99245782 -9.03625976 93.68443301 -10.6875 83.25 C-14.57450737 83.25 -15.30926574 83.33223882 -18.3671875 85.21875 C-19.04910156 85.62480469 -19.73101562 86.03085938 -20.43359375 86.44921875 C-21.84718014 87.312933 -23.25866428 88.18009778 -24.66796875 89.05078125 C-28.85717508 91.53590365 -31.65740017 92.81766017 -36.6875 92.25 C-36.07404974 89.23609219 -35.11525453 87.06972529 -33.4375 84.5 C-32.9940625 83.8090625 -32.550625 83.118125 -32.09375 82.40625 C-31.15625 80.96875 -30.21875 79.53125 -29.28125 78.09375 C-28.8378125 77.4028125 -28.394375 76.711875 -27.9375 76 C-27.53015625 75.37609375 -27.1228125 74.7521875 -26.703125 74.109375 C-25.64207258 72.16683287 -25.12740391 70.41126703 -24.6875 68.25 C-25.821875 68.1675 -26.95625 68.085 -28.125 68 C-32.96636085 67.45177573 -37.6860551 66.49326363 -42.4375 65.4375 C-43.17025146 65.28442383 -43.90300293 65.13134766 -44.65795898 64.97363281 C-49.23723558 63.91780143 -52.17661517 62.54663792 -55.6875 59.25 C-54.6875 56.25 -54.6875 56.25 -52.75 55.19140625 C-48.45215278 53.87025679 -44.10112865 53.02864807 -39.6875 52.1875 C-38.79804687 52.01412109 -37.90859375 51.84074219 -36.9921875 51.66210938 C-35.29334828 51.33121606 -33.59414819 51.00216812 -31.89453125 50.67529297 C-29.48979461 50.21190235 -27.08795115 49.73509117 -24.6875 49.25 C-27.03074122 43.3158177 -30.09629585 38.37304184 -33.72265625 33.1484375 C-34.78535106 31.56304915 -35.74506063 29.90969411 -36.6875 28.25 C-36.3575 27.26 -36.0275 26.27 -35.6875 25.25 C-30.28772234 24.41683118 -26.94923384 27.30571872 -22.6875 30.1875 C-16.6800105 34.39473888 -16.6800105 34.39473888 -9.6875 36.25 C-9.63142578 35.17298828 -9.63142578 35.17298828 -9.57421875 34.07421875 C-9.12865002 27.05869535 -8.34424908 20.13931743 -7.3125 13.1875 C-7.19865967 12.36660889 -7.08481934 11.54571777 -6.9675293 10.69995117 C-5.38604731 0.50102766 -5.38604731 0.50102766 0 0 Z " fill="#FEFDFB" transform="translate(80.6875,24.75)"/>
</svg>
