<?xml version="1.0" encoding="UTF-8"?>
<svg version="1.1" xmlns="http://www.w3.org/2000/svg" width="160" height="169">
<path d="M0 0 C14.6359012 11.30438283 23.89979695 26.01108735 29.75683594 43.35693359 C30.09714844 44.32115234 30.43746094 45.28537109 30.78808594 46.27880859 C35.43862358 62.21120608 34.57572806 81.9093861 28.75683594 97.35693359 C28.37140625 98.41783203 27.98597656 99.47873047 27.58886719 100.57177734 C18.95041939 122.74099775 2.51125671 139.79151929 -19.24316406 149.35693359 C-35.56416439 156.12557275 -57.26717858 156.1527048 -73.74707031 149.89208984 C-74.90078125 149.38548828 -76.05449219 148.87888672 -77.24316406 148.35693359 C-78.4484375 147.86064453 -79.65371094 147.36435547 -80.89550781 146.85302734 C-89.95544239 142.7706464 -96.32809212 137.28208581 -103.24316406 130.35693359 C-103.98308594 129.68791016 -104.72300781 129.01888672 -105.48535156 128.32958984 C-117.91042083 116.89562533 -126.32905853 97.97893834 -127.46240234 81.08984375 C-128.35994631 53.31104562 -124.14619211 30.74570106 -105.38378906 9.22412109 C-77.14606424 -20.5305063 -32.96609563 -23.88174036 0 0 Z " fill="#5AB6D3" transform="translate(127.2431640625,15.64306640625)"/>
<path d="M0 0 C6.75 0.75 6.75 0.75 9 3 C9.1953125 6.2578125 9.1953125 6.2578125 9.125 10.125 C9.10695312 11.40632813 9.08890625 12.68765625 9.0703125 14.0078125 C9.04710937 14.99523438 9.02390625 15.98265625 9 17 C9.44730469 16.6390625 9.89460938 16.278125 10.35546875 15.90625 C15.27699229 12.1285347 15.27699229 12.1285347 18.8125 11.5 C21 12 21 12 23 15 C23 20.08964831 20.97355918 22.79983618 17.69140625 26.40625 C16 28 16 28 12.75 30.125 C9.54624606 32.30937769 9.10763474 33.36136813 8 37 C7.76028911 39.89651829 7.76028911 39.89651829 7.875 42.8125 C7.89304688 43.78832031 7.91109375 44.76414063 7.9296875 45.76953125 C7.95289063 46.50558594 7.97609375 47.24164063 8 48 C9.39768235 47.40012326 10.79305655 46.7948677 12.1875 46.1875 C12.96480469 45.85105469 13.74210937 45.51460937 14.54296875 45.16796875 C15.35378906 44.78253906 16.16460937 44.39710937 17 44 C17.87914062 43.62359375 18.75828125 43.2471875 19.6640625 42.859375 C23.00160972 40.20273206 23.41013465 37.06396127 24.1875 33.0625 C26.03919429 24.30831977 26.03919429 24.30831977 28 21 C30.375 20.875 30.375 20.875 33 21 C35 23 35 23 35.23046875 24.875 C35.21628906 25.57625 35.20210938 26.2775 35.1875 27 C35.18105469 27.70125 35.17460938 28.4025 35.16796875 29.125 C35 31 35 31 34 33 C34.87011719 32.45859375 34.87011719 32.45859375 35.7578125 31.90625 C43.65101109 27.21722114 43.65101109 27.21722114 49 28 C49.66 28.33 50.32 28.66 51 29 C51.875 31.75 51.875 31.75 52 35 C49.46696326 39.25550172 46.05260706 41.29826196 42 44 C41.67 44.99 41.34 45.98 41 47 C41.804375 47.144375 42.60875 47.28875 43.4375 47.4375 C46 48 46 48 47 49 C47.125 52.5 47.125 52.5 47 56 C46 57 46 57 43.0625 57.3125 C39.61174411 57.29829936 37.08292105 56.31540348 33.9375 54.9375 C29.76694516 53.1788323 27.41034787 52.40476779 23 54 C17.10686223 56.50685774 17.10686223 56.50685774 13 61 C13.680625 61.2475 14.36125 61.495 15.0625 61.75 C18 63 18 63 21.25 65.1875 C24.93562472 67.33945517 27.72243094 67.23690107 31.8671875 66.5625 C34.79445605 65.79047313 37.3120639 64.37383401 40 63 C43.25 62.625 43.25 62.625 46 63 C48 66 48 66 47.875 68.5 C46.82064713 71.51243677 45.73439717 72.42565011 43 74 C42.34 74 41.68 74 41 74 C43.48375748 76.55472198 45.83124924 78.88110742 48.75 80.9375 C51 83 51 83 51.9375 86.0625 C52 89 52 89 50 92 C43.58878627 92.76065248 40.31609072 91.54406048 35 88 C35.03480469 88.62648438 35.06960937 89.25296875 35.10546875 89.8984375 C35.13253906 90.71570313 35.15960938 91.53296875 35.1875 92.375 C35.23970703 93.59316406 35.23970703 93.59316406 35.29296875 94.8359375 C35.19628906 95.55007812 35.09960938 96.26421875 35 97 C32 99 32 99 29.4375 98.875 C27 98 27 98 25.92578125 96.37890625 C24.7346845 93.31823993 24.28908481 90.30046452 23.75 87.0625 C22.71755534 81.33494015 22.71755534 81.33494015 19.3125 76.875 C15.58883253 74.76726369 11.87994758 72.80618249 8 71 C7.62867285 81.46875728 7.62867285 81.46875728 12.125 90.5 C13.38415502 91.70168321 14.67701222 92.86897515 16 94 C17.344917 95.23752819 18.67880805 96.48717396 20 97.75 C20.8971875 98.54664062 20.8971875 98.54664062 21.8125 99.359375 C23 101 23 101 22.8125 103.078125 C22 105 22 105 20 107 C15.99633659 106.64411881 12.68800389 105.52779788 9 104 C9.05220703 105.24716797 9.05220703 105.24716797 9.10546875 106.51953125 C9.13253906 107.60621094 9.15960938 108.69289063 9.1875 109.8125 C9.23970703 111.43091797 9.23970703 111.43091797 9.29296875 113.08203125 C9 116 9 116 7.67578125 117.85546875 C5.00620144 119.6787482 3.12954154 119.52159026 0 119 C-2.50334945 116.58009553 -2.95880306 114.65182721 -3.17578125 111.21875 C-3.18640081 108.47182468 -3.12973224 105.74359669 -3 103 C-3.57363281 103.48984375 -4.14726563 103.9796875 -4.73828125 104.484375 C-8.26562518 106.84812188 -10.82566613 106.27372681 -15 106 C-16 105 -16 105 -16.375 102.25 C-15.79953616 97.26264673 -12.82513448 95.54848252 -9.14453125 92.42578125 C-8.51933594 91.89339844 -7.89414063 91.36101562 -7.25 90.8125 C-6.65703125 90.32394531 -6.0640625 89.83539063 -5.453125 89.33203125 C-3.87220817 88.0420309 -3.87220817 88.0420309 -3 86 C-2.9283265 83.44842345 -2.90691558 80.92527029 -2.9375 78.375 C-2.94201172 77.66859375 -2.94652344 76.9621875 -2.95117188 76.234375 C-2.96296125 74.48954725 -2.98089676 72.744763 -3 71 C-4.6074328 71.93188881 -6.21082799 72.87074435 -7.8125 73.8125 C-8.70582031 74.33457031 -9.59914062 74.85664062 -10.51953125 75.39453125 C-15.814137 78.82143355 -16.77797581 81.96856254 -18.125 88.0625 C-19.91476346 95.82952692 -19.91476346 95.82952692 -21 98 C-23.33294775 98.04241723 -25.66702567 98.04092937 -28 98 C-29 97 -29 97 -29.09765625 94.93359375 C-29.08605469 94.10988281 -29.07445312 93.28617187 -29.0625 92.4375 C-29.04896484 91.19806641 -29.04896484 91.19806641 -29.03515625 89.93359375 C-29.02355469 89.29550781 -29.01195312 88.65742187 -29 88 C-29.59167969 88.37253906 -30.18335938 88.74507813 -30.79296875 89.12890625 C-31.58316406 89.60199219 -32.37335937 90.07507813 -33.1875 90.5625 C-33.96480469 91.03816406 -34.74210937 91.51382813 -35.54296875 92.00390625 C-38.54284753 93.22007332 -39.97687388 93.09239011 -43 92 C-45.16942298 88.74586552 -45.58271059 87.77619313 -45 84 C-43.1015625 81.76171875 -43.1015625 81.76171875 -40.625 79.6875 C-39.81289063 78.99011719 -39.00078125 78.29273437 -38.1640625 77.57421875 C-36 76 -36 76 -34 76 C-34 75.34 -34 74.68 -34 74 C-36.31 73.34 -38.62 72.68 -41 72 C-41.09765625 65.84765625 -41.09765625 65.84765625 -41 64 C-40.505 63.505 -40.505 63.505 -40 63 C-35.51360297 63.03850985 -31.32765893 63.66737658 -27.25 65.5625 C-23.92384791 67.03368265 -22.54152173 67.41083732 -19 67 C-16.03931412 65.49966382 -16.03931412 65.49966382 -13.1875 63.5 C-12.21167969 62.8503125 -11.23585937 62.200625 -10.23046875 61.53125 C-9.49441406 61.0259375 -8.75835937 60.520625 -8 60 C-14.81322748 54.72745672 -14.81322748 54.72745672 -23 53.0625 C-25.39407537 53.81064855 -27.67044611 54.64479695 -30 55.5625 C-33.45040107 56.92014342 -36.25679563 57.36519067 -40 57 C-41 56 -41 56 -41.375 52.75 C-40.91307143 48.1307143 -39.50391496 46.89072984 -36 44 C-36.56589844 43.59007812 -37.13179687 43.18015625 -37.71484375 42.7578125 C-38.44832031 42.21898437 -39.18179688 41.68015625 -39.9375 41.125 C-40.66839844 40.59132812 -41.39929687 40.05765625 -42.15234375 39.5078125 C-44 38 -44 38 -45 36 C-45.1875 33 -45.1875 33 -45 30 C-43 28 -43 28 -40.1875 27.625 C-36.29552434 28.08287949 -34.91222269 29.47096451 -32 32 C-29.81785432 32.77833534 -29.81785432 32.77833534 -28 33 C-28.33 32.34 -28.66 31.68 -29 31 C-29.46829268 23.62439024 -29.46829268 23.62439024 -27.5 21 C-27.005 20.67 -26.51 20.34 -26 20 C-22.55945078 21.42367554 -20.92108176 22.80664509 -19 26 C-17.98182285 29.60113183 -17.35739211 33.29261859 -16.71484375 36.9765625 C-16.24685771 39.51319972 -16.24685771 39.51319972 -15 43 C-12.69326235 44.51645791 -12.69326235 44.51645791 -10 45 C-8.5542489 45.69133648 -7.11598253 46.39865295 -5.6875 47.125 C-4.99011719 47.47820312 -4.29273438 47.83140625 -3.57421875 48.1953125 C-3.05472656 48.46085937 -2.53523438 48.72640625 -2 49 C-1.13767509 39.21203812 -1.13767509 39.21203812 -4.20898438 30.22802734 C-6.21936282 28.12895573 -8.33047475 26.35321854 -10.69433594 24.66479492 C-13.95632313 22.30098616 -14.9357916 21.25629852 -15.9375 17.2578125 C-15.958125 16.18273437 -15.97875 15.10765625 -16 14 C-15 13 -15 13 -11.75 12.75 C-7.78877317 13.01408179 -6.24032582 13.87702791 -3 16 C-3.05220703 14.77023438 -3.05220703 14.77023438 -3.10546875 13.515625 C-3.13253906 12.43796875 -3.15960938 11.3603125 -3.1875 10.25 C-3.23970703 8.64898437 -3.23970703 8.64898437 -3.29296875 7.015625 C-2.97082786 3.69972145 -2.22851086 2.40983327 0 0 Z " fill="#FBFDFE" transform="translate(76,27)"/>
</svg>
