<?xml version="1.0" encoding="UTF-8"?>
<svg version="1.1" xmlns="http://www.w3.org/2000/svg" width="160" height="168">
<path d="M0 0 C1.16466797 -0.020625 2.32933594 -0.04125 3.52929688 -0.0625 C14.49813868 -0.1113862 24.26473664 1.82227576 34 6.9375 C34.67409912 7.28417725 35.34819824 7.63085449 36.04272461 7.98803711 C56.93895967 19.01446373 71.0298606 36.66820493 78.18359375 59.0625 C85.05378134 82.60552995 81.19719987 107.2273432 70.25 128.8125 C58.76400735 148.96439504 39.84965107 161.16474231 17.9375 167.25 C12.10386303 168.60365155 6.33731592 168.47312759 0.375 168.5 C-1.30045898 168.5309375 -1.30045898 168.5309375 -3.00976562 168.5625 C-13.89543071 168.61298424 -23.59562599 166.56845332 -33.25 161.5 C-33.92925537 161.15146973 -34.60851074 160.80293945 -35.30834961 160.44384766 C-40.71906062 157.59270229 -45.44687312 154.26694725 -50.0625 150.25 C-50.63742188 149.816875 -51.21234375 149.38375 -51.8046875 148.9375 C-66.70424834 137.40235612 -75.95681493 117.48321591 -79.0625 99.25 C-80.8409701 72.24877172 -77.48644925 48.57534092 -59.3203125 27.73046875 C-58.57523438 26.91191406 -57.83015625 26.09335937 -57.0625 25.25 C-56.39992188 24.48300781 -55.73734375 23.71601563 -55.0546875 22.92578125 C-40.55815559 7.13393185 -21.00875324 0.0908978 0 0 Z " fill="#8F6A4B" transform="translate(79.0625,-0.25)"/>
<path d="M0 0 C1.09054688 0.02320313 2.18109375 0.04640625 3.3046875 0.0703125 C4.40039062 0.08835938 5.49609375 0.10640625 6.625 0.125 C7.88957031 0.15980469 7.88957031 0.15980469 9.1796875 0.1953125 C24.28964409 27.85505202 24.28964409 27.85505202 26.1796875 39.1953125 C29.71846293 38.01572069 29.93267726 37.33097191 31.6796875 34.1953125 C33.84635417 30.30642361 33.84635417 30.30642361 37.1796875 29.1953125 C41.50696427 33.0883379 44.05152314 37.09254736 46.6796875 42.2578125 C47.06769531 43.01078613 47.45570312 43.76375977 47.85546875 44.53955078 C52.97238386 54.58299412 56.41878126 62.8743292 57.1796875 74.1953125 C32.52627343 74.78895219 7.87189689 75.30258263 -16.78933716 75.37255859 C-18.92629346 75.37936683 -21.06324174 75.38959262 -23.20016479 75.40332031 C-26.19211675 75.42114753 -29.18378251 75.42547776 -32.17578125 75.42578125 C-33.05284729 75.43292648 -33.92991333 75.44007172 -34.83355713 75.44743347 C-39.88194491 75.42875983 -44.03444476 74.82340284 -48.8203125 73.1953125 C-46.81565822 66.75550548 -44.37447811 60.63843533 -41.5703125 54.5078125 C-41.1791626 53.64510742 -40.7880127 52.78240234 -40.38500977 51.89355469 C-37.04123691 44.56864686 -33.50626123 37.35387531 -29.8203125 30.1953125 C-27.5703125 29.8203125 -27.5703125 29.8203125 -24.8203125 30.1953125 C-23.14305801 32.22399174 -22.02824972 33.90065394 -20.8203125 36.1953125 C-20.30331787 37.17491943 -20.30331787 37.17491943 -19.77587891 38.17431641 C-18.70099172 40.27314122 -17.66179622 42.38613687 -16.6328125 44.5078125 C-14.65827565 49.15857161 -14.65827565 49.15857161 -11.8203125 53.1953125 C-10.15414135 53.23595082 -8.48643155 53.2380335 -6.8203125 53.1953125 C-7.40719817 46.75633832 -9.5913463 41.88909248 -12.46875 36.15625 C-14.71577424 31.38592804 -15.23544522 28.45871126 -13.8203125 23.1953125 C-12.47969418 19.52628981 -10.95867055 15.9562371 -9.3828125 12.3828125 C-8.97482422 11.42955078 -8.56683594 10.47628906 -8.14648438 9.49414062 C-4.14656941 0.28715855 -4.14656941 0.28715855 0 0 Z " fill="#FDFDFC" transform="translate(75.8203125,35.8046875)"/>
</svg>
