<?xml version="1.0" encoding="UTF-8"?>
<svg version="1.1" xmlns="http://www.w3.org/2000/svg" width="160" height="169">
<path d="M0 0 C17.08639864 13.13548964 28.94112649 33.86890075 32.125 55.1875 C33.79949312 80.00179241 30.47617724 103.2915396 14.625 123.1875 C13.14454356 124.87155062 11.64577539 126.53976823 10.125 128.1875 C9.51269531 128.89132813 8.90039062 129.59515625 8.26953125 130.3203125 C-3.25805567 142.85564156 -21.60825328 152.03751297 -38.59790039 153.40698242 C-59.23764794 154.24195482 -79.5622233 151.32171958 -95.70141602 137.30981445 C-97.68587279 135.47728094 -99.59329567 133.58382208 -101.46923828 131.640625 C-102.8807548 130.18155131 -104.32615691 128.76325153 -105.77734375 127.34375 C-122.84784938 110.20648334 -128.1875 88.23924356 -128.1875 64.64135742 C-127.90340529 40.48846485 -117.67255243 20.82983335 -100.640625 3.9765625 C-71.7693806 -22.74469562 -31.08441562 -21.29129453 0 0 Z " fill="#A2A7E8" transform="translate(127.875,15.8125)"/>
<path d="M0 0 C6.20620648 2.75696452 11.02247717 7.71360858 13.984375 13.8046875 C15.74438223 19.31826467 15.75960422 25.79892531 13.55859375 31.19921875 C12.98109375 32.25109375 12.40359375 33.30296875 11.80859375 34.38671875 C11.25171875 35.41796875 10.69484375 36.44921875 10.12109375 37.51171875 C6.5665866 41.93083575 2.16912445 44.59987518 -3.19140625 46.38671875 C-9.05476676 46.78423472 -14.06802533 46.48529045 -19.19140625 43.38671875 C-23.65358316 39.25767097 -27.78472994 34.78199303 -28.52734375 28.58203125 C-28.66081288 18.09135731 -28.66081288 18.09135731 -24.19140625 13.38671875 C-20.91560492 10.62048652 -18.95925955 9.48270041 -14.69140625 8.94921875 C-10.1591681 9.51574852 -7.15101708 11.10283579 -3.37890625 13.57421875 C-1.39796152 16.59776596 -1.08816318 19.85580578 -1.19140625 23.38671875 C-2.25390625 26.32421875 -2.25390625 26.32421875 -4.19140625 28.38671875 C-7.25390625 29.32421875 -7.25390625 29.32421875 -10.19140625 29.38671875 C-12.19140625 27.38671875 -12.19140625 27.38671875 -12.50390625 24.88671875 C-12.40078125 24.06171875 -12.29765625 23.23671875 -12.19140625 22.38671875 C-9.19140625 20.38671875 -9.19140625 20.38671875 -6.19140625 20.38671875 C-7.31250191 18.76177974 -7.31250191 18.76177974 -9.19140625 17.38671875 C-13.26784808 16.86260262 -13.26784808 16.86260262 -16.84765625 18.57421875 C-19.17512507 21.71359529 -18.71880687 24.93422003 -18.59375 28.7109375 C-18.33320895 31.61613059 -18.33320895 31.61613059 -16.25390625 34.57421875 C-12.09772836 37.0339975 -8.90608466 37.2764376 -4.19140625 36.38671875 C0.72483403 34.01964009 2.99461902 31.52631382 4.80859375 26.38671875 C5.42091799 20.87580062 4.54337455 16.18475054 1.80859375 11.38671875 C-2.57633076 6.00360005 -7.44760564 4.27365851 -14.19140625 3.38671875 C-14.19140625 2.39671875 -14.19140625 1.40671875 -14.19140625 0.38671875 C-9.96023605 -1.72886635 -4.46886949 -1.25064618 0 0 Z " fill="#FBFBFE" transform="translate(99.19140625,38.61328125)"/>
<path d="M0 0 C5.42233182 3.23918324 9.25829007 7.20767875 11.7734375 13.05859375 C12.75913793 19.79803392 11.79611417 25.51815871 7.7734375 31.05859375 C4.41980839 34.58259439 0.4863239 37.73381157 -4.4453125 38.32421875 C-5.198125 38.3190625 -5.9509375 38.31390625 -6.7265625 38.30859375 C-7.479375 38.31375 -8.2321875 38.31890625 -9.0078125 38.32421875 C-11.4562346 38.03109779 -13.09960304 37.27676144 -15.2265625 36.05859375 C-15.2265625 35.39859375 -15.2265625 34.73859375 -15.2265625 34.05859375 C-14.57429688 33.97222656 -13.92203125 33.88585937 -13.25 33.796875 C-7.09193808 32.80686209 -3.51006906 31.6633633 0.7734375 27.05859375 C3.13693323 23.08362366 3.66712302 18.58895993 2.7734375 14.05859375 C1.02278362 11.0388785 -1.05788631 8.64293184 -4.2265625 7.05859375 C-8.135242 6.80367987 -10.93598748 6.82570356 -14.2265625 9.05859375 C-16.69998516 12.76872774 -16.61159736 14.66919637 -16.2265625 19.05859375 C-14.86771134 21.45942813 -14.86771134 21.45942813 -13.2265625 23.05859375 C-10.25590741 22.71631803 -10.25590741 22.71631803 -7.2265625 22.05859375 C-6.8965625 21.39859375 -6.5665625 20.73859375 -6.2265625 20.05859375 C-7.5465625 19.72859375 -8.8665625 19.39859375 -10.2265625 19.05859375 C-10.8515625 17.18359375 -10.8515625 17.18359375 -11.2265625 15.05859375 C-10.5665625 14.39859375 -9.9065625 13.73859375 -9.2265625 13.05859375 C-5.92941457 13.38830854 -4.6038786 13.68127765 -2.2265625 16.05859375 C-2.14453125 18.1171875 -2.14453125 18.1171875 -2.4140625 20.49609375 C-2.49011719 21.27855469 -2.56617187 22.06101562 -2.64453125 22.8671875 C-3.3322105 25.45636911 -4.13071315 26.4229309 -6.2265625 28.05859375 C-10.73215891 29.56045922 -14.56869587 29.7744907 -18.9765625 27.87109375 C-21.64394247 25.72237099 -22.88916412 24.22611624 -24.2265625 21.05859375 C-24.7923556 15.21206508 -24.21360434 11.26182793 -21.2265625 6.05859375 C-15.41868502 -0.03761807 -8.32436614 -3.51960042 0 0 Z " fill="#FAFBFD" transform="translate(46.2265625,46.94140625)"/>
<path d="M0 0 C2.29296875 0.80859375 2.29296875 0.80859375 3.29296875 2.80859375 C2.81692577 5.53352941 2.02550756 8.13698163 1.29296875 10.80859375 C-2.66703125 10.80859375 -6.62703125 10.80859375 -10.70703125 10.80859375 C-12.68703125 7.34359375 -12.68703125 7.34359375 -14.70703125 3.80859375 C-9.88867257 -1.66089448 -6.9792993 -1.51641996 0 0 Z " fill="#F9F9FD" transform="translate(75.70703125,99.19140625)"/>
</svg>
