<?xml version="1.0" encoding="UTF-8"?>
<svg version="1.1" xmlns="http://www.w3.org/2000/svg" width="160" height="170">
<path d="M0 0 C2.46748269 1.91363596 4.78542353 3.90904216 7.0859375 6.01953125 C7.82972656 6.67179687 8.57351562 7.3240625 9.33984375 7.99609375 C20.30317393 18.17769082 27.42456046 30.94309564 32.0859375 45.01953125 C32.42496094 45.98246094 32.76398438 46.94539063 33.11328125 47.9375 C39.43773552 69.53390837 35.44267096 93.91742441 25.23364258 113.58520508 C22.11380895 119.26479101 18.48861458 124.25455874 14.0859375 129.01953125 C13.25191406 129.93347656 12.41789063 130.84742188 11.55859375 131.7890625 C-1.77808621 145.77631221 -19.41909006 155.4787313 -39.04296875 156.35546875 C-60.18770587 156.71300246 -79.44942032 152.31304199 -95.4140625 137.58203125 C-97.2910017 135.76421815 -99.10051962 133.90282577 -100.9140625 132.01953125 C-101.72359375 131.21773437 -102.533125 130.4159375 -103.3671875 129.58984375 C-120.41594252 111.90321015 -125.61397073 89.39262468 -125.21484375 65.546875 C-124.52194464 45.69802442 -116.64433895 26.44836562 -102.9140625 12.01953125 C-102.24117187 11.25769531 -101.56828125 10.49585937 -100.875 9.7109375 C-74.43214218 -18.86121411 -31.59849357 -21.4751156 0 0 Z " fill="#803FA5" transform="translate(124.9140625,13.98046875)"/>
<path d="M0 0 C8.48025899 4.45611464 12.43315229 11.81280926 15.9140625 20.53125 C17.77652923 26.74600741 18.35408411 32.70205164 18.7890625 39.15625 C20.0854185 55.27626804 21.57192403 70.83040304 29.35986328 85.25537109 C31.94769855 90.07104768 31.94769855 90.07104768 31.7421875 92.8828125 C30.48561723 95.3840986 29.42482864 96.24367762 26.9140625 97.53125 C22.16384689 98.01432277 18.77473224 97.61976711 14.2890625 96.03125 C9.22472948 94.20807067 9.22472948 94.20807067 3.9140625 94.53125 C0.4027497 97.05374483 -2.69778826 99.97550269 -5.57421875 103.19921875 C-8.85976006 106.0942306 -13.50980845 105.9273439 -17.703125 105.87890625 C-21.85755594 105.27276797 -24.95662124 103.26013243 -28.0859375 100.53125 C-29.8359375 97.84375 -29.8359375 97.84375 -31.0859375 95.53125 C-33.71397321 93.4663648 -35.01804337 93.52740694 -38.3984375 93.71875 C-42.12018273 94.40023497 -42.12018273 94.40023497 -45.4609375 96.09375 C-49.82428314 97.82404224 -53.45363861 98.46462366 -58.0859375 97.53125 C-61.2109375 95.28125 -61.2109375 95.28125 -63.0859375 92.53125 C-62.69112804 89.41734961 -61.35269307 87.05567056 -59.8359375 84.34375 C-53.33185909 71.58067439 -50.31795505 56.8532484 -49.80273438 42.63745117 C-49.23644495 27.33106984 -46.421581 14.02826718 -34.98828125 3.0703125 C-24.44765252 -5.45742409 -12.05769039 -5.17991473 0 0 Z " fill="#FDFDFE" transform="translate(96.0859375,32.46875)"/>
<path d="M0 0 C3.17134992 0.22652499 4.05609944 1.0607744 6.25 3.4375 C8.54419668 8.10782896 8.72028916 11.88346321 8 17 C6.5 20.625 6.5 20.625 5 23 C2.75 23.375 2.75 23.375 0 23 C-3.8226159 19.28069804 -4.3111247 16.21949549 -4.5 10.9375 C-4.37899552 6.8788081 -4.17061658 5.27725193 -2 1.75 C-1.01 0.88375 -1.01 0.88375 0 0 Z " fill="#8446A8" transform="translate(91,57)"/>
<path d="M0 0 C2.625 0.375 2.625 0.375 4.4375 2.25 C6.58735426 7.90751121 6.45578032 13.26028645 4.25 18.875 C2.625 21.375 2.625 21.375 0.625 23.375 C-1.3125 23.3125 -1.3125 23.3125 -3.375 22.375 C-6.80932056 18.57271653 -6.81440996 14.70879872 -6.67578125 9.8203125 C-6.13254172 5.40384564 -4.70978772 0.74365069 0 0 Z " fill="#8446A8" transform="translate(67.375,56.625)"/>
</svg>
