<?xml version="1.0" encoding="UTF-8"?>
<svg version="1.1" xmlns="http://www.w3.org/2000/svg" width="160" height="169">
<path d="M0 0 C1.59521484 0.56074219 1.59521484 0.56074219 3.22265625 1.1328125 C22.57442332 8.5212242 37.94814007 24.61543484 47 43 C55.83212975 63.36227317 57.51374906 86.85837273 50 108 C49.62617188 109.05832031 49.25234375 110.11664063 48.8671875 111.20703125 C40.98969916 131.52677766 25.92751737 149.58596593 6 159 C-11.12850946 165.54231167 -32.50632221 169.06133827 -50.09375 162.32421875 C-51.0528125 161.88722656 -52.011875 161.45023438 -53 161 C-54.1653125 160.49082031 -55.330625 159.98164063 -56.53125 159.45703125 C-64.20246497 155.95326271 -70.7572072 151.65786332 -77 146 C-78.11955078 145.00226563 -78.11955078 145.00226563 -79.26171875 143.984375 C-94.44557273 129.67498381 -104.93332219 110.06437265 -106.17700195 89.00244141 C-106.75379673 59.34461909 -101.79234311 40.39381273 -81.15625 18.23828125 C-80.4446875 17.49964844 -79.733125 16.76101562 -79 16 C-78.4121875 15.37480469 -77.824375 14.74960937 -77.21875 14.10546875 C-70.92350482 7.98969327 -62.95931344 4.45621307 -55 1 C-54.3709375 0.72317383 -53.741875 0.44634766 -53.09375 0.16113281 C-36.51548885 -6.83721154 -16.72093307 -6.14238358 0 0 Z " fill="#E86B88" transform="translate(106,4)"/>
<path d="M0 0 C0.75410156 0.00451172 1.50820312 0.00902344 2.28515625 0.01367188 C4.14847127 0.02546501 6.01174555 0.04340058 7.875 0.0625 C7.2559315 15.78683982 2.09739773 26.36735629 -9.05078125 37.17578125 C-14.65687551 42.27510992 -20.78309604 47.50464294 -28.59375 48.3203125 C-31.67791814 48.00618426 -32.67119524 47.12364454 -34.9375 45.0625 C-38.16538393 42.53921014 -40.62063932 41.08483765 -44.91015625 41.390625 C-48.92748797 42.60928647 -52.20788632 45.02825532 -55.609375 47.43359375 C-59.41840997 49.90000304 -59.41840997 49.90000304 -62.125 50.0625 C-74.02186082 46.44039843 -85.68125985 39.78769618 -92.5546875 29.1953125 C-95.82854377 22.6638878 -100.125 13.4298592 -100.125 6.0625 C-97.22859882 5.98129249 -94.33449088 5.92190579 -91.4375 5.875 C-90.62087891 5.84986328 -89.80425781 5.82472656 -88.96289062 5.79882812 C-84.11711362 5.73997253 -81.10860981 6.01012365 -77.125 9.0625 C-73.07048612 11.76550925 -69.88723357 11.71799815 -65.125 11.0625 C-61.12708393 9.53410647 -58.53253664 7.67380496 -56.125 4.0625 C-53.36025237 3.49931067 -50.92414488 3.21190491 -48.125 3.0625 C-47.12855469 2.99804688 -46.13210937 2.93359375 -45.10546875 2.8671875 C-36.9127499 2.56412762 -36.9127499 2.56412762 -33.0625 5 C-32.423125 5.680625 -31.78375 6.36125 -31.125 7.0625 C-26.52925319 8.5944156 -22.08918181 8.56496511 -17.4375 7.375 C-14.48805245 5.70098923 -12.4497731 3.51293651 -10.125 1.0625 C-6.93675432 -0.53162284 -3.49603338 -0.03924735 0 0 Z " fill="#4D385A" transform="translate(130.125,83.9375)"/>
<path d="M0 0 C6.61939525 1.20276178 9.51827643 4.03670508 13.8125 9.0625 C14.94173668 10.34705447 16.07314496 11.62970416 17.20703125 12.91015625 C17.6966333 13.47871338 18.18623535 14.04727051 18.69067383 14.63305664 C19.97562109 16.12804967 19.97562109 16.12804967 22 17 C21.625 19.9375 21.625 19.9375 21 23 C17.81102209 24.59448895 14.37550628 24.19039837 10.875 24.1875 C10.07980957 24.18814453 9.28461914 24.18878906 8.46533203 24.18945312 C0.54612258 24.12044041 -7.18114744 23.19306742 -15 22 C-14.59486891 16.50372155 -13.58385515 13.82310912 -9.75 9.875 C-8.94175781 9.029375 -8.13351563 8.18375 -7.30078125 7.3125 C-6.54152344 6.549375 -5.78226563 5.78625 -5 5 C-4.43667969 4.4225 -3.87335937 3.845 -3.29296875 3.25 C-2.2102787 2.15170923 -1.10824675 1.07249685 0 0 Z " fill="#50395B" transform="translate(48,44)"/>
<path d="M0 0 C4.54007065 2.00607773 7.90794454 4.06465669 11 8 C10.62890625 10.6640625 10.62890625 10.6640625 10 13 C7.39576408 13.02697137 4.79180756 13.04682489 2.1875 13.0625 C1.44951172 13.07087891 0.71152344 13.07925781 -0.04882812 13.08789062 C-3.29922068 13.10259828 -5.89404895 13.03531702 -9 12 C-8.45015228 8.12488273 -6.72444669 6.40423494 -3.9375 3.75 C-3.20402344 3.04359375 -2.47054687 2.3371875 -1.71484375 1.609375 C-1.14894531 1.07828125 -0.58304688 0.5471875 0 0 Z " fill="#533A5C" transform="translate(116,55)"/>
</svg>
