<?xml version="1.0" encoding="UTF-8"?>
<svg version="1.1" xmlns="http://www.w3.org/2000/svg" width="160" height="164">
<path d="M0 0 C1.51786829 1.31295607 3.01924597 2.64532466 4.5 4 C5.50546875 4.86818359 5.50546875 4.86818359 6.53125 5.75390625 C16.47856919 14.89201892 23.64347565 27.14491885 27.5 40 C27.97566406 41.52367188 27.97566406 41.52367188 28.4609375 43.078125 C34.04808052 64.29901685 30.99533936 86.76448738 21.125 106.1875 C17.77954411 111.90667182 13.79381623 116.97136574 9.5 122 C8.88253906 122.81726563 8.26507813 123.63453125 7.62890625 124.4765625 C-2.83522133 136.87991372 -20.58440248 145.99863744 -36.5 148 C-59.3458541 149.78196882 -80.26826377 146.08035259 -98.5 131.5 C-100.18390017 130.01937243 -101.85216433 128.52066281 -103.5 127 C-104.19222656 126.39929688 -104.88445312 125.79859375 -105.59765625 125.1796875 C-115.55275377 116.03603928 -122.57035116 103.82726836 -126.5 91 C-126.81710938 90.05769531 -127.13421875 89.11539063 -127.4609375 88.14453125 C-133.8774403 65.86337245 -129.1967671 42.03651655 -118.4375 22.0625 C-108.30196179 5.35196825 -92.87475354 -6.59315268 -74.5 -13 C-73.53449219 -13.33902344 -72.56898437 -13.67804687 -71.57421875 -14.02734375 C-47.33595721 -20.99383746 -19.78054397 -15.36470388 0 0 Z " fill="#DBBF8D" transform="translate(129.5,16)"/>
<path d="M0 0 C5.40779181 1.87398726 8.71084119 5.45322165 12 10 C12.90238747 12.70716242 13.11851302 14.23776768 13.09765625 17.01171875 C13.09282227 18.14770508 13.09282227 18.14770508 13.08789062 19.30664062 C13.07532227 20.48516602 13.07532227 20.48516602 13.0625 21.6875 C13.05798828 22.48478516 13.05347656 23.28207031 13.04882812 24.10351562 C13.0370585 26.06904257 13.01912348 28.03453085 13 30 C13.90621094 29.6390625 14.81242187 29.278125 15.74609375 28.90625 C31.256917 22.99736495 31.256917 22.99736495 38.8125 26.1875 C43.09889128 29.73908135 46.6443078 33.94197097 47.30078125 39.5859375 C47.32860103 46.20704522 47.05697695 50.74209499 42.3359375 55.7734375 C37.71324651 60.13828916 32.93347067 62.78868338 27 65 C27.63228516 65.92232422 27.63228516 65.92232422 28.27734375 66.86328125 C28.82519531 67.67152344 29.37304688 68.47976562 29.9375 69.3125 C30.48277344 70.11300781 31.02804688 70.91351563 31.58984375 71.73828125 C34.18442696 75.89967649 34.22190682 79.49198915 34.3125 84.3125 C34.36857422 86.25576172 34.36857422 86.25576172 34.42578125 88.23828125 C33.85310716 93.29777802 31.80698546 96.31348023 28.125 99.75 C22.36773998 103.13662354 17.39212138 103.63064321 11 102 C3.7153266 99.11311091 0.01922073 93.46843337 -4 87 C-5.49836162 88.96852201 -6.95815684 90.93680326 -8.32421875 93 C-11.78316195 98.07443817 -15.07757901 101.14130647 -21 103 C-26.54049786 103.89043716 -29.73025763 102.49352046 -34.203125 99.43359375 C-38.34744158 96.12714987 -40.64512894 92.82998436 -41.30859375 87.5390625 C-41.69566856 78.78882583 -39.13217456 72.62484592 -35 65 C-36.30324219 64.34644531 -36.30324219 64.34644531 -37.6328125 63.6796875 C-52.71571366 55.88516811 -52.71571366 55.88516811 -54.62109375 50.12109375 C-55.7887787 43.58446562 -55.66451101 37.61658371 -52.34375 31.7578125 C-49.36837266 27.86560378 -45.59779672 25.53259891 -41 24 C-33.37432619 23.06351374 -29.22944909 25.8200165 -23 30 C-22.34 30.33 -21.68 30.66 -21 31 C-21.15855469 30.47019531 -21.31710938 29.94039062 -21.48046875 29.39453125 C-22.79107307 23.3539264 -23.38200655 15.67467915 -20.4375 10.0625 C-14.58057564 2.70380017 -9.57409065 -1.11619119 0 0 Z " fill="#FEFEFD" transform="translate(85,29)"/>
<path d="M0 0 C3.08776034 2.0585069 4.56771464 3.53293156 5.625 7.12109375 C6.44862623 12.20870162 6.08140079 15.68603889 3 20 C0.69415934 22.04231601 -0.86198798 22.94559305 -3.9609375 23.09375 C-7.55165361 22.82678226 -9.54246488 22.35195009 -12.4375 20.125 C-15.58723729 15.84135729 -15.65437039 11.12153895 -15 6 C-11.09688809 -1.28580889 -7.67710717 -1.88281385 0 0 Z " fill="#DBC08F" transform="translate(85,72)"/>
</svg>
