<?xml version="1.0" encoding="UTF-8"?>
<svg version="1.1" xmlns="http://www.w3.org/2000/svg" width="160" height="170">
<path d="M0 0 C1.15113281 -0.01611328 2.30226563 -0.03222656 3.48828125 -0.04882812 C14.37975009 -0.05496762 24.14746606 1.92107998 33.8125 7 C34.48732422 7.34740234 35.16214844 7.69480469 35.85742188 8.05273438 C57.07211231 19.25554426 69.81737881 36.81183636 78.0703125 58.8359375 C85.0552141 81.74446094 81.85264369 107.10670825 71.0859375 128.19140625 C59.82166887 148.88137425 40.86747885 162.26203487 18.51171875 168.95703125 C12.81478316 170.45683873 7.43484792 170.81426097 1.5625 170.75 C0.5614624 170.74097656 -0.4395752 170.73195312 -1.47094727 170.72265625 C-19.83720446 170.29851367 -37.5442812 163.77975023 -51.25 151.3125 C-51.93320312 150.69761719 -52.61640625 150.08273438 -53.3203125 149.44921875 C-67.1129468 136.36457138 -78.3284697 115.3966992 -79.42700195 96.22314453 C-79.90488084 70.66138357 -77.49717883 46.8045492 -59.25 27.3125 C-58.43917969 26.41144531 -57.62835938 25.51039062 -56.79296875 24.58203125 C-46.75101327 13.92256167 -35.28869593 6.67114749 -21.25 2.3125 C-20.07695313 1.94640625 -18.90390625 1.5803125 -17.6953125 1.203125 C-11.8739512 -0.20272337 -5.95481307 -0.01644976 0 0 Z " fill="#7D7D7D" transform="translate(79.25,-0.3125)"/>
<path d="M0 0 C1.17175781 -0.01836914 1.17175781 -0.01836914 2.3671875 -0.03710938 C6.30135523 -0.04721426 8.28092449 -0.04188367 11.625 2.1875 C12.14453125 4.46484375 12.14453125 4.46484375 12.4375 7.125 C13.12979235 11.40903084 13.12979235 11.40903084 16.375 14.3125 C19.630686 15.18903085 22.27147166 15.42703774 25.625 15.1875 C25.625 14.5275 25.625 13.8675 25.625 13.1875 C28.33379335 11.83310332 30.63433268 12.12248549 33.625 12.1875 C34.615 14.1675 34.615 14.1675 35.625 16.1875 C36.285 16.1875 36.945 16.1875 37.625 16.1875 C40.41970296 19.04815465 42.625 21.81023277 42.625 25.875 C41.625 28.1875 41.625 28.1875 40.0625 30.125 C38.09622189 32.94618163 38.34896234 34.80603866 38.625 38.1875 C38.94481057 39.85681426 39.27598441 41.52404666 39.625 43.1875 C40.79869141 43.36925781 40.79869141 43.36925781 41.99609375 43.5546875 C43.00800781 43.72226563 44.01992187 43.88984375 45.0625 44.0625 C46.57650391 44.30613281 46.57650391 44.30613281 48.12109375 44.5546875 C48.94738281 44.76351562 49.77367187 44.97234375 50.625 45.1875 C53.33414967 50.60579933 51.89972414 59.45124136 50.625 65.1875 C49.57699219 65.35185547 49.57699219 65.35185547 48.5078125 65.51953125 C47.59773438 65.67808594 46.68765625 65.83664063 45.75 66 C44.84507813 66.15082031 43.94015625 66.30164063 43.0078125 66.45703125 C40.28087522 67.01801301 40.28087522 67.01801301 38.625 70.1875 C38.23381254 74.23247076 38.23381254 74.23247076 38.625 78.1875 C39.91855827 79.55945574 41.24798702 80.89932656 42.625 82.1875 C42.32735508 86.3060751 40.81765814 88.65980582 38.25 91.8125 C37.64414063 92.56789063 37.03828125 93.32328125 36.4140625 94.1015625 C34.88345922 95.88615235 33.31721213 97.55757789 31.625 99.1875 C28.22187262 98.12874926 25.61146769 97.17847846 22.625 95.1875 C20.0995777 95.1619911 20.0995777 95.1619911 17.4375 95.5625 C16.53644531 95.67335938 15.63539062 95.78421875 14.70703125 95.8984375 C14.01996094 95.99382812 13.33289063 96.08921875 12.625 96.1875 C12.67140625 96.77917969 12.7178125 97.37085938 12.765625 97.98046875 C12.81976563 99.16576172 12.81976563 99.16576172 12.875 100.375 C12.92140625 101.15230469 12.9678125 101.92960937 13.015625 102.73046875 C12.45881321 106.23281489 11.19859104 107.77818073 8.625 110.1875 C5.56640625 110.81640625 5.56640625 110.81640625 2.1875 110.75 C0.51880859 110.75193359 0.51880859 110.75193359 -1.18359375 110.75390625 C-5.02309942 110.07247624 -6.68956146 108.98927523 -9.375 106.1875 C-10.23046875 103.86328125 -10.23046875 103.86328125 -10.5625 101.5 C-10.87369796 99.17830727 -10.87369796 99.17830727 -11.375 97.1875 C-14.53977382 95.60511309 -17.92619774 95.75193698 -21.375 96.1875 C-22.3944119 97.16770375 -23.39746356 98.16553008 -24.375 99.1875 C-28.34250164 99.06915123 -30.08156395 98.43382097 -33.1484375 95.859375 C-34.00695313 94.89515625 -34.86546875 93.9309375 -35.75 92.9375 C-36.62398437 91.98359375 -37.49796875 91.0296875 -38.3984375 90.046875 C-40.50728343 86.99613345 -40.96658908 85.79249598 -40.375 82.1875 C-39 79.875 -39 79.875 -37.375 78.1875 C-36.715 78.1875 -36.055 78.1875 -35.375 78.1875 C-35.85230838 76.7285574 -36.33191042 75.27036504 -36.8125 73.8125 C-37.07933594 73.00039062 -37.34617187 72.18828125 -37.62109375 71.3515625 C-38.32679729 69.17718201 -38.32679729 69.17718201 -39.375 67.1875 C-41.40100175 66.96238869 -43.42959276 66.7434122 -45.46484375 66.62890625 C-47.375 66.1875 -47.375 66.1875 -49.375 63.1875 C-49.56983979 60.45687763 -49.65393643 57.85225836 -49.625 55.125 C-49.63273437 54.39216797 -49.64046875 53.65933594 -49.6484375 52.90429688 C-49.62836982 47.44086982 -49.62836982 47.44086982 -47.375 45.1875 C-46.26125 45.084375 -45.1475 44.98125 -44 44.875 C-40.30900567 44.49117076 -40.30900567 44.49117076 -37.9375 42.0625 C-35.97390259 38.44948077 -35.85826695 36.24754538 -36.375 32.1875 C-36.890625 31.5275 -37.40625 30.8675 -37.9375 30.1875 C-39.375 28.1875 -39.375 28.1875 -39.5 24.9375 C-37.71011235 18.97120782 -33.97819924 14.7257541 -28.625 11.5625 C-26.375 11.1875 -26.375 11.1875 -23.375 13.1875 C-23.375 13.8475 -23.375 14.5075 -23.375 15.1875 C-19.34465088 15.37069769 -16.89242949 15.12815076 -13.375 13.1875 C-12.385 13.1875 -11.395 13.1875 -10.375 13.1875 C-10.28412109 11.90552734 -10.28412109 11.90552734 -10.19140625 10.59765625 C-10.10761719 9.49292969 -10.02382812 8.38820313 -9.9375 7.25 C-9.85628906 6.14785156 -9.77507812 5.04570313 -9.69140625 3.91015625 C-9.0455271 -1.64759398 -4.59007475 0.00375006 0 0 Z " fill="#FDFDFD" transform="translate(79.375,30.8125)"/>
<path d="M0 0 C5.30141234 5.30141234 9.10909974 11.8082053 9.5 19.4375 C9.08852831 26.80541501 6.56751891 32.97453235 1.125 38 C-5.10080496 42.86391013 -11.23170897 43.93942124 -19 43 C-25.65556383 41.11206628 -30.1672713 36.61638083 -34 31 C-36.79051026 24.44836722 -37.22547568 17.61335108 -34.9375 10.8671875 C-31.87100622 4.08423658 -28.87668482 -0.03495169 -22 -3 C-20.576875 -3.7115625 -20.576875 -3.7115625 -19.125 -4.4375 C-12.58510277 -5.6146815 -5.51816763 -3.59322543 0 0 Z " fill="#7E7E7E" transform="translate(94,66)"/>
</svg>
