<?xml version="1.0" encoding="UTF-8"?>
<svg version="1.1" xmlns="http://www.w3.org/2000/svg" width="160" height="169">
<path d="M0 0 C16.68020951 13.14205886 28.50921252 32.44907441 31.87402344 53.52001953 C34.83693644 78.73247084 30.6817774 101.07360569 15.6875 121.6875 C2.75188057 137.98902041 -14.1200825 149.36224399 -34.8125 153.1875 C-39.28082237 153.59974501 -43.70220087 153.66554039 -48.1875 153.625 C-49.37561279 153.61670166 -50.56372559 153.60840332 -51.7878418 153.59985352 C-60.44706526 153.43297595 -67.79089303 152.65324557 -75.8125 149.1875 C-76.96234375 148.70152344 -78.1121875 148.21554688 -79.296875 147.71484375 C-99.00262303 138.61491862 -115.00574614 122.94917659 -122.67578125 102.43359375 C-129.90764252 81.73658635 -131.55404582 56.68797802 -122.8125 36.1875 C-122.30460937 34.97578125 -121.79671875 33.7640625 -121.2734375 32.515625 C-112.21944003 12.86287219 -96.13691048 -3.66582075 -75.73046875 -11.44921875 C-49.7005347 -20.64272977 -22.09177666 -16.68273261 0 0 Z " fill="#F37321" transform="translate(127.8125,15.8125)"/>
<path d="M0 0 C4.72760193 1.55853855 9.15273614 3.89149021 13.63549805 6.03710938 C14.67254883 6.52373047 15.70959961 7.01035156 16.77807617 7.51171875 C17.78161133 7.99060547 18.78514648 8.46949219 19.8190918 8.96289062 C20.73102295 9.39641846 21.6429541 9.82994629 22.58251953 10.27661133 C29.73863172 14.23842421 29.73863172 14.23842421 30.86206055 17.87304688 C30.79077857 21.93611965 30.5214501 24.9403616 28.07299805 28.28710938 C25.19799805 30.72460938 25.19799805 30.72460938 22.44799805 31.34960938 C18.73528801 30.63562667 15.78017448 29.24464001 12.3894043 27.61523438 C9.58015602 26.4735078 7.19436783 26.4172894 4.19799805 26.72460938 C4.17867856 28.63705668 4.17867856 28.63705668 5.19799805 30.72460938 C8.02447102 32.34502189 10.84256438 33.62716262 13.83081055 34.90429688 C19.91219696 37.67556157 23.46563435 41.56675735 25.9987793 47.81054688 C26.51524973 49.23574376 27.01908952 50.66557816 27.51049805 52.09960938 C27.77411133 52.83566406 28.03772461 53.57171875 28.30932617 54.33007812 C28.95011394 56.12428387 29.57566883 57.92391797 30.19799805 59.72460938 C30.85799805 59.72460938 31.51799805 59.72460938 32.19799805 59.72460938 C33.76228043 56.59604461 33.47806891 54.19748806 33.19799805 50.72460938 C32.25096692 48.58782065 31.18463948 46.61834992 29.9753418 44.61914062 C29.00717837 42.25954635 29.36535635 41.08637923 30.19799805 38.72460938 C33.19799805 38.72460938 33.19799805 38.72460938 35.00268555 40.43945312 C36.02749023 41.53966797 36.02749023 41.53966797 37.07299805 42.66210938 C41.96923138 47.2378037 45.73350368 47.42701829 52.2487793 47.52539062 C56.14552187 47.7886143 58.17051239 49.34587065 61.19799805 51.72460938 C63.51446604 52.58379115 65.78921104 53.14650049 68.19799805 53.72460938 C67.27289034 59.91122374 64.03853467 64.60911944 60.88549805 69.91210938 C60.30348633 70.92208984 59.72147461 71.93207031 59.12182617 72.97265625 C58.26814453 74.41801758 58.26814453 74.41801758 57.3972168 75.89257812 C56.8798999 76.77196045 56.36258301 77.65134277 55.82958984 78.55737305 C54.02942972 80.94851795 52.93394846 81.61182515 50.19799805 82.72460938 C48.13595581 82.97857666 48.13595581 82.97857666 45.92016602 82.98339844 C45.08605194 82.98970276 44.25193787 82.99600708 43.39254761 83.00250244 C42.50076813 82.99845398 41.60898865 82.99440552 40.69018555 82.99023438 C39.7683548 82.99214783 38.84652405 82.99406128 37.89675903 82.99603271 C35.9517591 82.99739186 34.00675001 82.99371431 32.06176758 82.98535156 C29.07702416 82.97462385 26.09287931 82.98526854 23.1081543 82.99804688 C21.21883005 82.99672571 19.32950617 82.99416421 17.44018555 82.99023438 C16.5443576 82.99428284 15.64852966 82.9983313 14.72555542 83.00250244 C13.89774567 82.99619812 13.06993591 82.9898938 12.21704102 82.98339844 C11.48742157 82.98180725 10.75780212 82.98021606 10.006073 82.97857666 C8.19799805 82.72460938 8.19799805 82.72460938 6.19799805 80.72460938 C6.1510351 78.97523964 6.16057345 77.22420916 6.19799805 75.47460938 C5.63390169 67.55845714 1.50226122 62.70411092 -3.22973633 56.73583984 C-6.18758174 52.95218604 -8.98407573 49.05034351 -11.80200195 45.16210938 C-12.36564453 44.4001123 -12.92928711 43.63811523 -13.51000977 42.85302734 C-17.91989514 36.82063697 -20.55427389 32.47301032 -19.80200195 24.72460938 C-18.68640738 22.21310585 -17.60768354 20.0937776 -16.17700195 17.78710938 C-15.63221191 16.87578247 -15.63221191 16.87578247 -15.07641602 15.94604492 C-4.94693648 -0.75601468 -4.94693648 -0.75601468 0 0 Z " fill="#FEFDFC" transform="translate(51.802001953125,54.275390625)"/>
<path d="M0 0 C3.44955607 0.6570583 5.09531214 2.10705202 7.625 4.5 C9.625 7.5 9.625 7.5 9.36157227 9.46850586 C8.13315375 12.85653053 6.3361683 15.93765764 4.5625 19.0625 C4.16417969 19.76834229 3.76585938 20.47418457 3.35546875 21.20141602 C-0.27787334 27.53030126 -4.18945999 34.31445999 -9.375 39.5 C-13.7294581 40.00243747 -15.70913529 39.98168936 -19.3125 37.375 C-21.78491185 33.92860773 -21.82121273 32.65549583 -21.375 28.5 C-19.95385742 25.67919922 -19.95385742 25.67919922 -17.98046875 22.8046875 C-17.27212891 21.75925781 -16.56378906 20.71382812 -15.83398438 19.63671875 C-15.08439453 18.56035156 -14.33480469 17.48398438 -13.5625 16.375 C-12.82451172 15.29089844 -12.08652344 14.20679687 -11.32617188 13.08984375 C-9.36118638 10.21260706 -7.38489996 7.34602485 -5.375 4.5 C-4.85075439 3.7383252 -4.32650879 2.97665039 -3.78637695 2.19189453 C-2.375 0.5 -2.375 0.5 0 0 Z " fill="#FEFCFA" transform="translate(112.375,53.5)"/>
<path d="M0 0 C3.35179082 1.23073569 5.92287542 2.85140944 8 5.734375 C9.06607907 14.12974769 4.0029363 19.63410985 -0.84765625 25.98828125 C-1.55792969 26.89449219 -2.26820312 27.80070312 -3 28.734375 C-7.59532863 27.26258443 -11.29675185 25.92089085 -15 22.734375 C-16.3125 19.671875 -16.3125 19.671875 -16 15.734375 C-13.37780852 10.11078282 -7.53270521 -1.00043741 0 0 Z " fill="#FEFBF9" transform="translate(76,29.265625)"/>
<path d="M0 0 C4.41743795 1.38833764 7.0833938 3.39713352 10 7 C9.21780608 15.38584641 1.52941236 24.06599649 -4 30 C-7.21524305 28.59155282 -9.32183868 26.89655214 -11.75 24.375 C-12.36359375 23.74335937 -12.9771875 23.11171875 -13.609375 22.4609375 C-14.06828125 21.97882812 -14.5271875 21.49671875 -15 21 C-13.26703415 17.37410222 -11.25389781 13.94531336 -9.1875 10.5 C-8.52105469 9.3759375 -7.85460937 8.251875 -7.16796875 7.09375 C-5.04076579 4.05817389 -3.00237512 2.13781684 0 0 Z " fill="#FEFBF9" transform="translate(94,40)"/>
<path d="M0 0 C1.65 0.66 3.3 1.32 5 2 C4.62640787 11.65735658 3.13032202 21.86967798 -4 29 C-6.79870027 30.39935013 -8.90498792 30.25265405 -12 30 C-13.9375 28.9375 -13.9375 28.9375 -15 27 C-14.66623748 21.6597996 -13.37598814 18.40973556 -10.3125 14.0625 C-9.59707031 13.03769531 -8.88164063 12.01289062 -8.14453125 10.95703125 C-5.47160128 7.27140651 -2.79241501 3.59629205 0 0 Z " fill="#FEFBF9" transform="translate(126,72)"/>
</svg>
