<?xml version="1.0" encoding="UTF-8"?>
<svg version="1.1" xmlns="http://www.w3.org/2000/svg" width="160" height="163">
<path d="M0 0 C1.71884399 0.01740234 1.71884399 0.01740234 3.47241211 0.03515625 C24.22164189 0.43733615 42.46642475 8.38064809 57.515625 22.7109375 C75.11404053 41.20723138 80.79036014 63.29329141 80.3671875 88.16015625 C79.59024852 109.42966334 68.92470893 129.56875036 53.65625 144.18359375 C34.06121699 160.7390358 12.17938281 164.91260404 -12.9375 163.375 C-26.98510117 161.78438282 -42.05174875 154.48177414 -51.9375 144.375 C-52.81921875 143.55128906 -53.7009375 142.72757813 -54.609375 141.87890625 C-60.82340975 135.95877855 -65.74822253 129.90690307 -69.9375 122.375 C-70.39769531 121.56417969 -70.85789062 120.75335938 -71.33203125 119.91796875 C-81.33967203 101.20277345 -83.38946939 77.4684413 -77.32421875 57.14453125 C-73.0554829 45.11503625 -67.73211692 34.76321451 -58.9375 25.375 C-58.32519531 24.67246094 -57.71289062 23.96992188 -57.08203125 23.24609375 C-42.62010597 7.48907068 -21.00092236 -0.2735669 0 0 Z " fill="#BD7AB8" transform="translate(79.9375,-0.375)"/>
<path d="M0 0 C0.94921875 1.9609375 0.94921875 1.9609375 1.6875 4.375 C1.93886719 5.16648437 2.19023438 5.95796875 2.44921875 6.7734375 C3 9 3 9 3 12 C2.01 12 1.02 12 0 12 C0 12.66 0 13.32 0 14 C0.57105469 14.14695312 1.14210938 14.29390625 1.73046875 14.4453125 C9.20661579 16.51343585 16.03008218 19.62428745 23 23 C23.1484375 27.78125 23.1484375 27.78125 21.8125 29.75 C20 31 20 31 17.56982422 31.30737305 C14.88895837 31.76822592 14.88895837 31.76822592 13.40673828 33.88598633 C12.96571777 34.69318115 12.52469727 35.50037598 12.0703125 36.33203125 C11.585625 37.21310547 11.1009375 38.09417969 10.6015625 39.00195312 C10.11429687 39.92943359 9.62703125 40.85691406 9.125 41.8125 C8.35929687 43.18631836 8.35929687 43.18631836 7.578125 44.58789062 C4.81286456 49.1229408 4.81286456 49.1229408 4.29663086 54.17944336 C5.10420914 56.26972841 6.15760515 57.91181274 7.4375 59.75 C11.54827909 66.17754766 13.14419108 73.40781543 12 81 C8.9244304 91.39377762 4.08648297 98.90782607 -5.375 104.3125 C-7.23664133 105.23577347 -9.11112091 106.13381402 -11 107 C-12.04414062 107.51240234 -12.04414062 107.51240234 -13.109375 108.03515625 C-21.88336062 111.69098359 -33.88281405 111.40695666 -42.875 108.5 C-52.47532212 104.3354767 -60.14948441 98.33806742 -65 89 C-65.33773437 88.35289063 -65.67546875 87.70578125 -66.0234375 87.0390625 C-69.17650158 79.95190012 -69.05339261 72.21593391 -66.5625 64.9375 C-62.37989059 55.6886313 -55.19684106 49.04528916 -46 45 C-45.35417969 44.69449219 -44.70835938 44.38898438 -44.04296875 44.07421875 C-40.07158727 42.3675762 -36.98390358 41.99040649 -32.6640625 42.046875 C-29.18107736 41.75338783 -27.54320891 41.50810845 -24.96728516 39.09863281 C-23.16544729 36.47937581 -21.69143289 33.833029 -20.25 31 C-19.71890625 30.07832031 -19.1878125 29.15664063 -18.640625 28.20703125 C-15.18512483 21.82695411 -14.7347727 18.08527286 -16 11 C-15.34 10.34 -14.68 9.68 -14 9 C-11.90625 9.20703125 -11.90625 9.20703125 -9.5 9.8125 C-8.7059375 10.00457031 -7.911875 10.19664063 -7.09375 10.39453125 C-5 11 -5 11 -3 12 C-3.2165625 11.38511719 -3.433125 10.77023438 -3.65625 10.13671875 C-3.9346875 9.32847656 -4.213125 8.52023438 -4.5 7.6875 C-4.7784375 6.88699219 -5.056875 6.08648437 -5.34375 5.26171875 C-6 3 -6 3 -6 0 C-3 -1 -3 -1 0 0 Z " fill="#FDFBFD" transform="translate(99,23)"/>
<path d="M0 0 C4.25627348 1.27621387 8.06543243 2.9737378 12.01220703 4.96875 C19.9310733 9.07039486 19.9310733 9.07039486 28.625 10.5 C39.11334859 10.70784837 49.775088 19.11551012 58 25 C54.93863229 31.8185008 50.5786499 35.50283309 44 39 C33.60078069 42.87234087 23.92505199 43.43122697 13.60546875 39.25390625 C5.96066115 35.57477096 0.95454947 30.5259592 -3 23 C-5.10670762 16.60280248 -5.03734527 9.33352719 -2 3.3125 C-1.34 2.219375 -0.68 1.12625 0 0 Z " fill="#BD7BB8" transform="translate(43,85)"/>
<path d="M0 0 C0.94921875 1.9609375 0.94921875 1.9609375 1.6875 4.375 C2.06455078 5.56222656 2.06455078 5.56222656 2.44921875 6.7734375 C3 9 3 9 3 12 C2.01 12 1.02 12 0 12 C0 12.66 0 13.32 0 14 C-0.99 13.67 -1.98 13.34 -3 13 C-3.94921875 10.8203125 -3.94921875 10.8203125 -4.6875 8.125 C-4.93886719 7.24070312 -5.19023438 6.35640625 -5.44921875 5.4453125 C-6 3 -6 3 -6 0 C-3 -1 -3 -1 0 0 Z " fill="#F7EFF6" transform="translate(99,23)"/>
<path d="M0 0 C0.66 1.65 1.32 3.3 2 5 C-3.445 7.475 -3.445 7.475 -9 10 C-9.99 8.68 -10.98 7.36 -12 6 C-9.1490916 2.47828963 -4.56486714 0 0 0 Z " fill="#FBF7FA" transform="translate(126,31)"/>
<path d="M0 0 C2.475 0.99 2.475 0.99 5 2 C3.68775452 5.93673644 2.08089673 8.22719294 -1 11 C-2.32 10.34 -3.64 9.68 -5 9 C-3.7508258 5.54074837 -2.32472205 2.85306797 0 0 Z " fill="#F9F3F8" transform="translate(110,25)"/>
</svg>
