<?xml version="1.0" encoding="UTF-8"?>
<svg version="1.1" xmlns="http://www.w3.org/2000/svg" width="160" height="168">
<path d="M0 0 C1.29357422 -0.01160156 2.58714844 -0.02320312 3.91992188 -0.03515625 C14.97643748 -0.00156684 24.2575856 1.97944914 34.0625 7.0625 C34.74111084 7.40917725 35.41972168 7.75585449 36.11889648 8.11303711 C57.27054085 19.20033041 71.04867449 37.20202158 78.25292969 59.78515625 C83.329085 77.13532477 83.05621573 96.31164052 77.0625 113.375 C76.65 114.55964844 76.2375 115.74429688 75.8125 116.96484375 C68.38339009 136.06525417 53.77988145 152.75710319 35.00195312 161.31396484 C15.49335461 169.49368018 -6.80693326 172.38660448 -26.9375 164.375 C-37.07496417 160.19046365 -45.19880147 155.27281196 -52.9375 147.375 C-53.53433594 146.83617187 -54.13117187 146.29734375 -54.74609375 145.7421875 C-64.98206981 136.33359981 -71.75033339 124.50194895 -75.9375 111.375 C-76.20457764 110.59261963 -76.47165527 109.81023926 -76.74682617 109.00415039 C-79.2183462 101.08986406 -79.45123757 93.42725117 -79.375 85.1875 C-79.37229095 84.50279633 -79.36958191 83.81809265 -79.36679077 83.11264038 C-79.30398 72.6541117 -78.57874011 63.23619453 -74.9375 53.375 C-74.57527344 52.31023438 -74.21304688 51.24546875 -73.83984375 50.1484375 C-67.37050299 32.82376223 -51.91342595 15.94217229 -35.41796875 7.59375 C-31.94965243 6.06062642 -28.5096539 4.64801381 -24.9375 3.375 C-24.23455811 3.10574707 -23.53161621 2.83649414 -22.80737305 2.55908203 C-15.25003155 -0.07518684 -7.93994244 -0.07099799 0 0 Z " fill="#00B7EE" transform="translate(78.9375,-0.375)"/>
<path d="M0 0 C11.21311488 7.97856251 20.65657631 17.06292775 29 28 C29.68835938 28.86109375 30.37671875 29.7221875 31.0859375 30.609375 C40.83911953 43.23993258 45.97804243 55.93753389 45 72 C43.42533825 82.67620665 36.58652353 92.82337668 28.265625 99.5390625 C23.80528433 102.41521321 18.99288387 104.25861271 14 106 C13.32195312 106.2475 12.64390625 106.495 11.9453125 106.75 C1.66020678 109.9282301 -9.47282065 108.75622709 -19 104 C-29.8928176 97.93289293 -38.350609 89.11372173 -42.43359375 77.19140625 C-44.50087593 69.19316278 -44.20645112 61.90131378 -42 54 C-41.80019531 53.18402344 -41.60039063 52.36804688 -41.39453125 51.52734375 C-37.08230306 37.01461638 -25.39888489 24.59652452 -15 14 C-14.09765625 13.07058594 -13.1953125 12.14117187 -12.265625 11.18359375 C-8.33714565 7.19118944 -4.42677653 3.44131038 0 0 Z " fill="#FCFEFE" transform="translate(79,29)"/>
<path d="M0 0 C2.37890625 0.078125 2.37890625 0.078125 5 1 C6.58984375 3.546875 6.58984375 3.546875 7.9375 6.75 C11.05690583 13.68845435 11.05690583 13.68845435 17 18 C21.96868122 19.27482462 26.93444654 20.20729889 32 21 C32.495 22.98 32.495 22.98 33 25 C28.76324434 27.71152362 24.65818147 27.56892733 19.828125 26.53515625 C11.61311535 24.1414724 5.19314274 19.64767825 0.90234375 12.1640625 C-0.59604378 8.57052703 -1.11904578 4.8859943 -1 1 C-0.67 0.67 -0.34 0.34 0 0 Z " fill="#0AB9EE" transform="translate(54,93)"/>
</svg>
