<?xml version="1.0" encoding="UTF-8"?>
<svg version="1.1" xmlns="http://www.w3.org/2000/svg" width="161" height="169">
<path d="M0 0 C1.18368164 0.00902344 2.36736328 0.01804688 3.58691406 0.02734375 C25.39967526 0.45703426 42.5394711 8.55504715 58.109375 23.73828125 C67.6090827 33.74573195 74.6836669 45.23387724 78.75 58.4375 C79.06839844 59.44296875 79.38679687 60.4484375 79.71484375 61.484375 C85.71641923 84.16313949 82.10622458 108.98152224 71.12109375 129.4765625 C67.07391132 136.14361477 62.20377341 141.88152641 56.75 147.4375 C56.08613281 148.12585938 55.42226562 148.81421875 54.73828125 149.5234375 C37.87080791 165.78046895 16.94538203 169.96907526 -5.6875 169.71484375 C-26.4069037 169.12260823 -44.13753093 158.48261151 -58.234375 143.7265625 C-76.51212581 122.96927185 -80.60203715 99.71808642 -79.48193359 72.78613281 C-79.03301025 66.30462478 -77.68558686 60.48283285 -75.25 54.4375 C-74.86457031 53.45523438 -74.47914062 52.47296875 -74.08203125 51.4609375 C-69.47147826 40.6283761 -63.37768868 31.91312056 -55.25 23.4375 C-54.6003125 22.72464844 -53.950625 22.01179688 -53.28125 21.27734375 C-39.31344076 6.42223515 -20.02327566 -0.18364713 0 0 Z " fill="#F16E1E" transform="translate(79.25,-0.4375)"/>
<path d="M0 0 C10.94340495 4.69003069 17.15547899 12.20459677 22 23 C24.79485968 31.11519498 23.37189746 41.67186823 21.44921875 49.83984375 C20.79671703 52.97752592 20.79615924 55.80649476 21 59 C22.20961344 60.4206927 22.20961344 60.4206927 25.75 60.375 C29.17972411 60.31968187 29.9333626 60.04780509 32.875 57.9375 C35.3397107 54.53039991 36.12121689 52.07435806 37 48 C39.78047743 48.342305 40.78324462 48.7376677 42.59765625 50.93359375 C49.59732616 62.89836284 52.29276349 75.18507788 49.37890625 88.9296875 C44.44664972 102.65232122 34.08921346 111.77296983 21.359375 118.0546875 C12.7404735 121.50795598 0.87924052 121.38895995 -7.875 118.375 C-19.52839593 113.37819155 -30.51808306 106.01365225 -35.8671875 94.0625 C-40.70976964 81.8868649 -40.30211026 69.32342841 -35.5 57.22265625 C-33.4813798 52.88577692 -31.35680333 48.46686246 -28 45 C-27.01 45 -26.02 45 -25 45 C-22.8125 48 -22.8125 48 -21 51 C-16.82558957 49.60852986 -15.71464787 46.6953938 -13.625 43.0625 C-13.22724365 42.38098877 -12.8294873 41.69947754 -12.41967773 40.99731445 C-11.26651306 39.00544179 -10.13019901 37.00497408 -9 35 C-8.46246094 34.05382813 -7.92492187 33.10765625 -7.37109375 32.1328125 C-2.48809584 23.00816566 -1.78547725 14.03486451 -1.24609375 3.80859375 C-1 1 -1 1 0 0 Z " fill="#FEFDFC" transform="translate(76,25)"/>
<path d="M0 0 C0.02578125 0.70125 0.0515625 1.4025 0.078125 2.125 C0.45135913 8.368189 0.94360649 14.0117323 5 19 C7.24790826 20.72392965 9.51059453 22.18538562 11.9765625 23.578125 C14.29542913 25.20759885 15.03570068 26.35953642 16 29 C16.33043004 32.63473046 16.27614241 35.25786726 15 38.6875 C11.48170647 42.75552689 7.59912089 44.63082788 2.27734375 45.38671875 C-3.99939419 45.63709757 -8.09738314 45.00213621 -13 41 C-16.6393087 36.29922626 -17.65755 31.44371443 -17.37890625 25.57421875 C-16.31813883 18.36756175 -8.72732304 0 0 0 Z " fill="#F17123" transform="translate(82,94)"/>
</svg>
