<?xml version="1.0" encoding="UTF-8"?>
<svg version="1.1" xmlns="http://www.w3.org/2000/svg" width="160" height="170">
<path d="M0 0 C1.35326054 1.14349237 2.68773614 2.30968389 4 3.5 C4.64839844 4.06847656 5.29679688 4.63695313 5.96484375 5.22265625 C14.67432435 13.34575598 21.37549686 23.10000023 25.9375 34.0625 C26.20763916 34.70952881 26.47777832 35.35655762 26.75610352 36.02319336 C30.97909151 46.86874626 32.5373941 57.65745111 32.4375 69.25 C32.43137695 70.46993652 32.42525391 71.68987305 32.41894531 72.94677734 C32.25204855 82.6383437 30.99752322 91.30689183 28 100.5 C27.63648438 101.82837891 27.63648438 101.82837891 27.265625 103.18359375 C24.40984057 112.05692393 17.73428002 119.32385781 12 126.5 C11.30519531 127.39460937 10.61039063 128.28921875 9.89453125 129.2109375 C2.16147661 138.60931948 -8.67611044 145.2827267 -20 149.5 C-21.2065625 149.96535156 -22.413125 150.43070313 -23.65625 150.91015625 C-42.69642692 157.68500329 -63.07476041 156.18048132 -81.27148438 147.71313477 C-88.12077466 144.37354928 -94.33615236 140.64493762 -100 135.5 C-100.73347656 134.85804688 -101.46695313 134.21609375 -102.22265625 133.5546875 C-112.6163143 123.89197281 -119.08857965 111.66678646 -124 98.5 C-124.41378906 97.50742188 -124.82757813 96.51484375 -125.25390625 95.4921875 C-132.56045201 75.17642613 -129.1310202 49.63117471 -120.39453125 30.2578125 C-110.17343966 10.04467338 -93.41483083 -4.48678759 -72.546875 -12.890625 C-48.13318092 -20.66359487 -20.33769378 -15.2445492 0 0 Z " fill="#F3BE25" transform="translate(128,15.5)"/>
<path d="M0 0 C0.763125 0.20625 1.52625 0.4125 2.3125 0.625 C2.46131534 7.28110421 1.91771259 13.54741134 0.9375 20.125 C0.66022907 22.06753327 0.38420101 24.01024432 0.109375 25.953125 C-0.02662109 26.90896484 -0.16261719 27.86480469 -0.30273438 28.84960938 C-0.85764217 32.85226915 -1.34618191 36.86116935 -1.8125 40.875 C-1.95945313 42.13828125 -2.10640625 43.4015625 -2.2578125 44.703125 C-2.76588118 49.34040636 -3.22331209 53.98312088 -3.6875 58.625 C18.0925 59.12 18.0925 59.12 40.3125 59.625 C40.8075 62.1 40.8075 62.1 41.3125 64.625 C39.90625 66.58203125 39.90625 66.58203125 37.8125 68.4375 C32.68290871 73.20448225 28.21716767 78.37251059 23.69921875 83.71484375 C17.70261865 90.78541637 11.55687218 97.66814947 5.19555664 104.41333008 C1.60259727 108.22526774 -1.90310924 112.08373108 -5.2578125 116.109375 C-7.73764957 118.73827332 -9.67311554 120.50423995 -13.3125 120.9375 C-15.6875 120.625 -15.6875 120.625 -17.6875 118.625 C-17.95107218 110.83065158 -15.66232981 102.66840802 -14.1875 95.0625 C-12.7435716 87.59120192 -11.39935443 80.20463181 -10.6875 72.625 C-11.74066406 72.63660156 -12.79382813 72.64820312 -13.87890625 72.66015625 C-40.21787945 72.85981027 -40.21787945 72.85981027 -44.6875 70.625 C-43.43367441 66.53603146 -41.92456614 62.99356327 -39.7734375 59.30078125 C-39.1848999 58.285 -38.5963623 57.26921875 -37.98999023 56.22265625 C-37.35391846 55.13855469 -36.71784668 54.05445313 -36.0625 52.9375 C-35.07455444 51.23980469 -35.07455444 51.23980469 -34.06665039 49.5078125 C-27.25656982 37.8168148 -20.37182479 26.16739956 -13.42919922 14.5546875 C-12.27246279 12.6089576 -11.12811416 10.65580709 -9.99658203 8.6953125 C-9.47306152 7.79554687 -8.94954102 6.89578125 -8.41015625 5.96875 C-7.95519775 5.17662109 -7.50023926 4.38449219 -7.03149414 3.56835938 C-4.99247234 0.62001904 -3.61589965 -0.50454414 0 0 Z " fill="#FEFEFC" transform="translate(82.6875,25.375)"/>
</svg>
