<?xml version="1.0" encoding="UTF-8"?>
<svg version="1.1" xmlns="http://www.w3.org/2000/svg" width="161" height="163">
<path d="M0 0 C2.17122137 1.6507231 4.22916936 3.37630444 6.28125 5.171875 C7.27125 5.94917969 7.27125 5.94917969 8.28125 6.7421875 C22.61594749 18.3331343 33.16014387 37.87365215 35.28125 56.171875 C37.1878497 81.30239116 32.34044243 103.57847114 15.96484375 123.20703125 C3.33886535 137.15625629 -15.29379351 148.10158078 -34.43505859 149.34887695 C-47.80585279 149.62831653 -60.03058375 149.86275033 -72.71875 145.171875 C-73.60949219 144.883125 -74.50023437 144.594375 -75.41796875 144.296875 C-95.12539274 137.36679184 -108.95040503 121.23955064 -118.53125 103.359375 C-127.24382089 84.88062 -129.15803276 62.84465702 -122.84765625 43.25390625 C-122.47511719 42.23683594 -122.10257812 41.21976563 -121.71875 40.171875 C-121.41839844 39.26824219 -121.11804688 38.36460938 -120.80859375 37.43359375 C-116.85349135 26.42436932 -109.84767873 17.43494447 -101.71875 9.171875 C-100.95820312 8.3984375 -100.19765625 7.625 -99.4140625 6.828125 C-72.36135155 -19.07151958 -30.52589912 -20.52603561 0 0 Z " fill="#606256" transform="translate(125.71875,13.828125)"/>
<path d="M0 0 C1.89206551 6.41656999 -1.07365842 11.31367217 -4 17 C-11.20819291 28.30045229 -23.99538476 32.40732169 -36.1328125 36.3515625 C-36.81843262 36.57513428 -37.50405273 36.79870605 -38.21044922 37.02905273 C-39.55047014 37.46166423 -40.89321961 37.88593001 -42.23876953 38.30102539 C-43.84442561 38.81230345 -45.42533509 39.40002741 -47 40 C-47.495 40.99 -47.495 40.99 -48 42 C-31.97965436 40.05087532 -31.97965436 40.05087532 -16.49609375 35.671875 C-13.8467899 34.95876035 -12.54275102 35.0666608 -10 36 C-10.31003274 42.97573661 -11.33504552 47.62282486 -16.69140625 52.55859375 C-26.07081171 60.15685959 -38.02438169 63.52067906 -50 63 C-49.67 63.99 -49.34 64.98 -49 66 C-38.11 66.495 -38.11 66.495 -27 67 C-29.41706775 75.45973712 -31.65796359 76.87696333 -38.77734375 81.0390625 C-45.54148716 84.20651696 -55.58906699 84.23454685 -62.6796875 82.25 C-65.13158412 81.73069274 -65.13158412 81.73069274 -67.24609375 83.546875 C-67.96925781 84.27390625 -68.69242188 85.0009375 -69.4375 85.75 C-72.77803748 88.90802467 -75.55696886 91.51898962 -80 93 C-83.375 92.6875 -83.375 92.6875 -86 92 C-87.7250201 85.89608273 -86.26469498 82.69961891 -83.2265625 77.234375 C-79.62843295 70.67982053 -79.98563556 61.31694634 -81.671875 54.140625 C-82.21421785 52.53406222 -82.75967496 50.92854661 -83.30859375 49.32421875 C-84.85866689 44.1135209 -85.00704943 39.41406176 -82.8984375 34.359375 C-75.46956723 21.09069763 -63.04121674 15.93554227 -49 11.9375 C-41.04120013 9.72433867 -33.02497822 7.75998822 -24.99194336 5.8371582 C-18.93028984 4.3453115 -13.34161036 2.3609825 -7.62890625 -0.1796875 C-4.64577509 -1.1105308 -2.96430971 -0.87153934 0 0 Z " fill="#FDFDFC" transform="translate(124,35)"/>
</svg>
