<?xml version="1.0" encoding="UTF-8"?>
<svg version="1.1" xmlns="http://www.w3.org/2000/svg" width="160" height="170">
<path d="M0 0 C16.26858288 12.83794007 27.15383066 31.61843057 31.35546875 51.9140625 C33.77698276 79.43385698 30.67125034 103.32857335 13.6875 125.6875 C13.2028125 126.33589844 12.718125 126.98429688 12.21875 127.65234375 C3.35067037 138.62876584 -8.38879112 145.55882816 -21.3125 150.6875 C-22.87097656 151.33912109 -22.87097656 151.33912109 -24.4609375 152.00390625 C-32.40773505 154.81962341 -40.06439015 155.06414977 -48.4375 155.125 C-49.52200439 155.13523193 -50.60650879 155.14546387 -51.72387695 155.15600586 C-62.3104419 155.04127461 -71.98491081 152.93443813 -81.375 148 C-82.04982422 147.65259766 -82.72464844 147.30519531 -83.41992188 146.94726562 C-104.14217234 136.00449778 -118.54231099 118.12297039 -125.625 95.8125 C-130.92477101 77.96770142 -130.51486203 56.24629955 -124.3125 38.6875 C-124.07015625 37.83671875 -123.8278125 36.9859375 -123.578125 36.109375 C-120.6219545 26.99954345 -114.01327961 19.2440229 -108.3125 11.6875 C-107.66796875 10.83285156 -107.0234375 9.97820313 -106.359375 9.09765625 C-99.04692352 0.13457858 -88.8225384 -5.81724261 -78.3125 -10.3125 C-77.20132813 -10.80105469 -76.09015625 -11.28960938 -74.9453125 -11.79296875 C-49.71794872 -21.31323182 -21.44011271 -15.36089088 0 0 Z " fill="#679B49" transform="translate(128.3125,15.3125)"/>
<path d="M0 0 C5.60648908 5.60648908 3.22085123 19.39248634 3.24023438 27.04882812 C3.24995233 29.36364531 3.2810755 31.6775769 3.3125 33.9921875 C3.37461066 42.7643493 2.71199596 50.56997984 0 59 C-0.41958984 60.35484497 -0.41958984 60.35484497 -0.84765625 61.73706055 C-3.85672459 70.98068411 -10.55228672 77.9244322 -18.77441406 82.87329102 C-22.60358808 84.81182086 -26.59268246 85.81722382 -30.75 86.8125 C-31.58660156 87.02841797 -32.42320313 87.24433594 -33.28515625 87.46679688 C-37.04787252 88.4119768 -40.07757285 89 -44 89 C-43.95359375 89.89203125 -43.9071875 90.7840625 -43.859375 91.703125 C-43.80523437 93.45882812 -43.80523437 93.45882812 -43.75 95.25 C-43.70359375 96.41015625 -43.6571875 97.5703125 -43.609375 98.765625 C-44 102 -44 102 -45.78515625 104.43359375 C-48 106 -48 106 -51.6875 105.8125 C-55 105 -55 105 -56 104 C-57.79799329 80.03658125 -45.52306842 63.63447589 -31.71435547 45.28466797 C-29.17424639 41.89954396 -26.66932187 38.49052221 -24.1875 35.0625 C-23.77322754 34.50175781 -23.35895508 33.94101563 -22.93212891 33.36328125 C-20.96736065 30.6414077 -19.49337315 28.35655506 -19 25 C-25.20358179 26.33897185 -28.48947496 29.91078996 -32.75 34.3125 C-33.45374756 35.03018555 -34.15749512 35.74787109 -34.88256836 36.48730469 C-46.85391102 48.88006716 -56.74423267 62.41658508 -62 79 C-63.32 79 -64.64 79 -66 79 C-73.18136462 64.38885878 -76.59590463 52.96785103 -71.25390625 37.109375 C-65.24411936 22.20660127 -51.82397366 13.71750066 -37.62109375 7.52734375 C-31.10487434 5.05827799 -24.46601101 3.26083251 -17.6875 1.6875 C-16.95885742 1.51573242 -16.23021484 1.34396484 -15.47949219 1.16699219 C-10.40864029 0.06643122 -5.18106375 -0.70981866 0 0 Z " fill="#FDFDFC" transform="translate(116,36)"/>
</svg>
