<?xml version="1.0" encoding="UTF-8"?>
<svg version="1.1" xmlns="http://www.w3.org/2000/svg" width="161" height="164">
<path d="M0 0 C16.54680759 14.51561264 28.59260434 34.20371716 30.28173828 56.52172852 C30.78058468 69.43642353 30.59801182 81.40142389 26.0625 93.625 C25.70027344 94.66398437 25.33804688 95.70296875 24.96484375 96.7734375 C17.4653783 116.55168877 2.38212097 132.77822875 -16.84375 141.4375 C-36.93062132 149.97175413 -60.51312055 150.95435728 -80.94189453 142.82763672 C-102.6843418 133.7300984 -117.63181812 116.59303356 -126.76171875 95.0703125 C-130.10796991 85.2650184 -131.46615928 76.23582248 -131.375 65.875 C-131.36597656 64.64362305 -131.35695312 63.41224609 -131.34765625 62.14355469 C-130.98567471 43.06411095 -125.01968537 24.90356813 -111.9375 10.625 C-111.11378906 9.72136719 -110.29007813 8.81773438 -109.44140625 7.88671875 C-80.87602229 -22.05628656 -32.66507685 -25.70441284 0 0 Z " fill="#F06B87" transform="translate(130.9375,16.375)"/>
<path d="M0 0 C5.58339078 -0.55833908 9.43370689 0.9495279 14 4 C17.77005742 7.3807064 19.71917117 11.10956264 21 16 C21.99 16 22.98 16 24 16 C24.103125 15.278125 24.20625 14.55625 24.3125 13.8125 C25.66274722 8.28876136 28.40205146 5.1247074 33.02734375 2.01171875 C36.4121754 0.27573579 39.19846558 0.06335891 43 0 C43.99 0.66 44.98 1.32 46 2 C45.54105269 7.32378883 45.00675169 11.43803193 42 16 C37.48961942 19.75865048 32.54586904 21.37321175 27 23 C27.59916167 25.48614226 27.59916167 25.48614226 29 28 C31.50208201 29.25922324 31.50208201 29.25922324 34.5 29.9375 C45.19036112 33.15100975 53.54381489 38.40546502 59.28125 48.18359375 C63.00946952 55.44030675 64.03707779 61.83301243 63 70 C59.42123035 80.39807156 54.17426783 88.03792641 44.14453125 92.93359375 C32.32808369 98.40731931 20.85314494 101.36761823 7.9375 97.4375 C-3.2716962 93.21756731 -10.93665433 87.43639804 -17 77 C-20.46346431 68.77427226 -19.87458088 58.38992505 -17 50 C-11.15309655 39.50172607 -1.51002021 33.92056342 9.375 29.6875 C12 29 12 29 16 29 C15.96403311 26.09305803 15.96403311 26.09305803 15 23 C12.37537111 21.15318521 12.37537111 21.15318521 9.125 19.9375 C4.44902081 17.99387009 2.07838861 16.7147339 0 12 C-0.546875 9.39453125 -0.546875 9.39453125 -0.75 6.8125 C-0.82734375 5.95269531 -0.9046875 5.09289063 -0.984375 4.20703125 C-1 2 -1 2 0 0 Z " fill="#FEFDFD" transform="translate(58,28)"/>
<path d="M0 0 C2.84809926 0.30790262 4.58286148 0.65478191 6.8125 2.5 C8.62321291 6.31202718 8.53923507 9.85601541 8 14 C6.8125 17 6.8125 17 5 19 C2.3125 19.8125 2.3125 19.8125 0 20 C-3.08272799 17.01360726 -4.32861615 14.7899684 -4.5 10.5625 C-4.31503317 5.95374309 -2.89000222 3.52219021 0 0 Z " fill="#F0708B" transform="translate(93,78)"/>
<path d="M0 0 C3 1.25 3 1.25 5 4.25 C5.61422989 8.50972417 5.39678806 12.24758806 3.8125 16.25 C2 18.25 2 18.25 -0.5 19.25 C-3 19.25 -3 19.25 -4.75 18 C-6.87154922 15.0298311 -7.15764096 12.35378248 -7.1875 8.8125 C-7.20167969 8.05066406 -7.21585938 7.28882812 -7.23046875 6.50390625 C-6.97205842 3.9767408 -6.34404101 2.39574968 -5 0.25 C-3 -0.75 -3 -0.75 0 0 Z " fill="#F0718B" transform="translate(65,78.75)"/>
</svg>
