<?xml version="1.0" encoding="UTF-8"?>
<svg version="1.1" xmlns="http://www.w3.org/2000/svg" width="160" height="161">
<path d="M0 0 C2.45315953 1.90551229 4.76559217 3.88569267 7.0546875 5.984375 C7.73660156 6.58636719 8.41851562 7.18835938 9.12109375 7.80859375 C18.31090156 16.38694664 25.08857834 27.08604753 29.0546875 38.984375 C29.6425 40.716875 29.6425 40.716875 30.2421875 42.484375 C36.7641587 64.58661072 33.74934761 87.82953275 22.85546875 107.984375 C20.23844457 112.34418968 17.46048503 116.20880517 14.0546875 119.984375 C13.20261719 120.94085938 12.35054687 121.89734375 11.47265625 122.8828125 C-0.64085603 135.98259806 -17.46590669 145.96976789 -35.64575195 147.16137695 C-61.13540038 147.69761882 -82.82300922 144.19319245 -101.9453125 125.984375 C-116.79739968 111.47204144 -127.02141339 91.18182455 -127.32617188 70.20483398 C-127.2832165 46.59548401 -121.1084979 25.83574026 -104.453125 8.37109375 C-75.9862708 -18.81681482 -32.4025702 -22.17470321 0 0 Z " fill="#65B039" transform="translate(126.9453125,14.015625)"/>
<path d="M0 0 C2.1875 0 2.1875 0 5 1 C7.61590907 4.15518878 9.39037511 7.86371692 11.3203125 11.4609375 C11.96613281 12.65589844 11.96613281 12.65589844 12.625 13.875 C13.00914063 14.61492187 13.39328125 15.35484375 13.7890625 16.1171875 C15.01462219 18.29845809 15.01462219 18.29845809 18 20 C25.59 20.33 33.18 20.66 41 21 C41 39.48 41 57.96 41 77 C35.30546268 77 34.21484117 76.99271274 29.8125 74.1875 C28.97332031 73.66542969 28.13414063 73.14335938 27.26953125 72.60546875 C25 71 25 71 23.38671875 69.36328125 C21.93162993 67.73300183 21.93162993 67.73300183 19 67 C18.79503906 67.75925781 18.59007813 68.51851563 18.37890625 69.30078125 C18.10949219 70.29464844 17.84007813 71.28851563 17.5625 72.3125 C17.29566406 73.29863281 17.02882813 74.28476563 16.75390625 75.30078125 C16.21920575 77.21517526 15.62855462 79.11433615 15 81 C13.125 81.875 13.125 81.875 11 82 C8.94830509 80.43751702 8.10465125 79.49497212 7.56640625 76.94921875 C7.55689782 71.44383507 8.35597755 68.37282694 12 64 C12.54527344 63.55914062 13.09054688 63.11828125 13.65234375 62.6640625 C15.24167391 61.03849029 15.24167391 61.03849029 15.109375 58.546875 C14.99078125 57.62390625 14.8721875 56.7009375 14.75 55.75 C14.63269531 54.77933594 14.51539062 53.80867188 14.39453125 52.80859375 C14.26433594 51.88175781 14.13414063 50.95492187 14 50 C13.90074219 49.24847656 13.80148438 48.49695313 13.69921875 47.72265625 C13.48319529 46.14600742 13.24460613 44.57246796 13 43 C8.76730422 44.51167706 7.33731903 47.30552799 5 51 C3.5625 52.875 3.5625 52.875 2 54 C-0.6875 54.1875 -0.6875 54.1875 -3 54 C-4.50889469 50.98221063 -4.50026276 49.37677363 -4 46 C-0.19824777 39.97283183 4.48901681 36.64853554 11 34 C11.66 34 12.32 34 13 34 C13.15185924 29.81437978 13.11379976 26.31938429 10.328125 23.01953125 C8.27024645 21.26723993 6.15851638 19.62600104 4 18 C1.2170446 15.50820538 -0.7895706 13.6312882 -2 10 C-2.34710744 3.52066116 -2.34710744 3.52066116 0 0 Z " fill="#FBFDFB" transform="translate(36,50)"/>
<path d="M0 0 C4.70588235 0.70588235 4.70588235 0.70588235 6 2 C6.203125 3.890625 6.203125 3.890625 6.25 6.25 C6.27578125 7.01828125 6.3015625 7.7865625 6.328125 8.578125 C5.5768494 14.12325441 1.85552282 17.22074544 -2.125 20.8125 C-6.48818827 25.00147849 -6.48818827 25.00147849 -8.125 30.625 C-8.08375 31.73875 -8.0425 32.8525 -8 34 C-7.154375 34.226875 -6.30875 34.45375 -5.4375 34.6875 C-0.38295966 36.6174154 3.50637252 39.16910179 6.9375 43.375 C8.29421126 46.72687489 8.27549251 49.41859733 8 53 C7 54 7 54 3.75 54.0625 C-0.97221082 52.72454027 -1.82997307 51.0247101 -4.15234375 46.91015625 C-5 45 -5 45 -5 43 C-5.99 43 -6.98 43 -8 43 C-8.13277344 43.80824219 -8.26554687 44.61648437 -8.40234375 45.44921875 C-8.66724609 47.05216797 -8.66724609 47.05216797 -8.9375 48.6875 C-9.19853516 50.27111328 -9.19853516 50.27111328 -9.46484375 51.88671875 C-10 55 -10 55 -10.7421875 57.671875 C-11.24345178 60.03104202 -11.24345178 60.03104202 -9.85546875 61.87890625 C-9.30503906 62.43449219 -8.75460938 62.99007812 -8.1875 63.5625 C-4.77822092 67.06895568 -3.154393 69.55899864 -2.625 74.5 C-3 78 -3 78 -5 80.4375 C-5.99 81.2109375 -5.99 81.2109375 -7 82 C-8.485 81.505 -8.485 81.505 -10 81 C-11.1328125 78.34765625 -11.1328125 78.34765625 -12.125 75.0625 C-13.33975101 70.94197225 -13.33975101 70.94197225 -15 67 C-18.68039392 68.6898939 -21.4528105 70.9424501 -24.51171875 73.5625 C-27.00408477 75.0023598 -28.86269224 75.50475508 -31.65551758 76.08984375 C-32.46837723 76.26249756 -33.28123688 76.43515137 -34.11872864 76.61303711 C-35.04995796 76.80458374 -35.04995796 76.80458374 -36 77 C-36.02526563 69.18547248 -36.04283105 61.37095542 -36.05493164 53.55639648 C-36.05997383 50.89558519 -36.06680736 48.23477668 -36.07543945 45.57397461 C-36.08751009 41.75894484 -36.09322929 37.94395156 -36.09765625 34.12890625 C-36.10281754 32.93100967 -36.10797882 31.7331131 -36.11329651 30.49891663 C-36.11337204 29.3978508 -36.11344757 28.29678497 -36.11352539 27.16235352 C-36.115746 26.18750504 -36.11796661 25.21265656 -36.12025452 24.20826721 C-36 22 -36 22 -35 21 C-33.42414096 20.90333532 -31.84442244 20.86800231 -30.265625 20.859375 C-29.29882812 20.84003906 -28.33203125 20.82070312 -27.3359375 20.80078125 C-25.29446584 20.76718741 -23.25268386 20.7487181 -21.2109375 20.74609375 C-15.23447841 20.61518832 -15.23447841 20.61518832 -10.03125 17.90625 C-7.74237283 14.63139497 -5.92442177 11.36915379 -4.25 7.75 C-1.07432432 1.07432432 -1.07432432 1.07432432 0 0 Z " fill="#FCFDFB" transform="translate(119,51)"/>
<path d="M0 0 C3.66302947 0 4.92677324 0.93200373 7.625 3.4375 C10.76372213 7.48714464 11.74159636 12.09884899 13 17 C21.415 16.505 21.415 16.505 30 16 C32.17761413 11.48698593 32.17761413 11.48698593 34.3371582 6.96533203 C35.954686 3.67188533 36.88933065 2.07377957 40 0 C42.6875 0.375 42.6875 0.375 45 1 C45.66984271 5.52143827 45.79314015 7.80333241 43.21875 11.6875 C41.76195484 13.45206878 40.27283504 15.1905357 38.75 16.8984375 C36.78669888 18.80035381 36.78669888 18.80035381 37 21 C38.94127845 22.58011037 40.98976439 23.9535663 43.0546875 25.3671875 C45.17935215 27.15054056 46.08181817 28.39515807 47 31 C46.625 34.75 46.625 34.75 46 38 C41.58366954 40.19698395 37.45947981 40.29119891 32.62890625 40.265625 C31.82895737 40.26753845 31.02900848 40.2694519 30.20481873 40.27142334 C28.51797164 40.27278039 26.83111395 40.26911753 25.14428711 40.26074219 C22.57446601 40.25004979 20.00534616 40.26064631 17.43554688 40.2734375 C15.79166514 40.27211554 14.14778383 40.26955241 12.50390625 40.265625 C11.7412294 40.26967346 10.97855255 40.27372192 10.19276428 40.27789307 C5.77382583 40.23942396 2.11816099 39.80345817 -2 38 C-3.47896861 35.04206277 -3.4355582 33.29779776 -3 30 C-0.25737852 25.57315123 2.85442769 22.36206326 8 21 C5.79454005 17.52215931 3.57225645 14.50282736 0.75 11.5 C-1.48852917 8.950564 -1.97216156 8.18442965 -2.5 4.6875 C-2 2 -2 2 0 0 Z " fill="#FBFCF9" transform="translate(58,26)"/>
</svg>
