<?xml version="1.0" encoding="UTF-8"?>
<svg version="1.1" xmlns="http://www.w3.org/2000/svg" width="160" height="170">
<path d="M0 0 C16.49170713 14.25788057 27.9579142 32.52815103 31.625 54.1875 C32.52911739 69.38789572 32.92896573 84.753488 27.625 99.1875 C27.17769531 100.41339844 26.73039063 101.63929687 26.26953125 102.90234375 C18.9304412 121.33861017 4.42262268 138.0909373 -13.375 147.1875 C-25.4489915 152.07999622 -36.47119478 154.37575211 -49.5 154.4375 C-50.56476563 154.458125 -51.62953125 154.47875 -52.7265625 154.5 C-63.2535118 154.5511017 -72.86303151 152.66290046 -82.0625 147.4375 C-83.00875244 146.91687988 -83.00875244 146.91687988 -83.97412109 146.38574219 C-89.17141209 143.45735316 -93.8311414 140.05069962 -98.375 136.1875 C-99.1896875 135.56488281 -100.004375 134.94226563 -100.84375 134.30078125 C-116.39712439 121.3156338 -125.45383008 100.87001817 -128.375 81.1875 C-130.07827962 52.18945818 -124.50932729 30.118546 -105.484375 7.98828125 C-77.95094453 -21.45397948 -31.70743545 -24.12737666 0 0 Z " fill="#E5532C" transform="translate(128.375,15.8125)"/>
<path d="M0 0 C0.99 0.33 1.98 0.66 3 1 C3.73711211 7.33916413 1.61632238 12.09702722 -0.80859375 17.9140625 C-1.86008112 20.63758715 -2.53546358 23.12734952 -3 26 C2.23085779 28.6154289 7.12533728 28.90419658 12.6328125 27.171875 C16.37063287 25.71161864 19.65247537 24.23168308 23 22 C25.6875 21.875 25.6875 21.875 28 22 C28.4783279 25.18885264 28.41173783 27.31377028 26.734375 30.109375 C24.62846659 32.91043764 22.4788452 35.5211548 20 38 C20.02320634 40.00944246 20.02320634 40.00944246 21 42 C22.76970659 43.61613643 22.76970659 43.61613643 25 45.0625 C30.94885831 49.4764766 37.67548725 55.47882666 39.8125 62.7734375 C39.874375 63.50820312 39.93625 64.24296875 40 65 C39 66 39 66 35.4375 66.0625 C34.303125 66.041875 33.16875 66.02125 32 66 C32.433125 67.09054688 32.86625 68.18109375 33.3125 69.3046875 C37.53178234 80.51850206 38.76148668 90.07004198 38 102 C34.83884224 100.63016497 34.0072908 100.0109362 32 97 C31.34 97 30.68 97 30 97 C28.89068556 98.77190496 27.86377778 100.59561396 26.875 102.4375 C20.68797778 113.22349973 14.60319239 119.27389553 3 124 C2.19820313 124.3403125 1.39640625 124.680625 0.5703125 125.03125 C-4.71923455 126.95472166 -9.80152901 127.26862427 -15.375 127.3125 C-16.06561523 127.31813965 -16.75623047 127.3237793 -17.46777344 127.32958984 C-21.13014706 127.276655 -23.88718447 127.00337615 -27 125 C-25.14768467 113.56396625 -16.52742436 106.08514062 -8.52416992 98.45874023 C1.30754814 89.26430962 1.30754814 89.26430962 5.3125 76.8125 C5.18610707 74.04750285 5.18610707 74.04750285 3.9375 72.0625 C0.69582065 70.28480487 -1.51498782 71.05491195 -5 72 C-6.4540625 73.2684375 -6.4540625 73.2684375 -7.9375 74.5625 C-12.06405555 77.84690135 -13.84067671 77.49928935 -19 77 C-20.33333333 76.66666667 -21.66666667 76.33333333 -23 76 C-28.37229678 75.26506707 -28.37229678 75.26506707 -33.15625 77.38671875 C-36.22808894 80.02872948 -38.8046189 82.7518132 -41.3125 85.9375 C-41.869375 86.618125 -42.42625 87.29875 -43 88 C-43.99 88 -44.98 88 -46 88 C-45.27731765 91.2985139 -45.27731765 91.2985139 -41.9375 92.6875 C-40.968125 93.120625 -39.99875 93.55375 -39 94 C-39.33 94.66 -39.66 95.32 -40 96 C-56.91666667 90.77777778 -56.91666667 90.77777778 -60.875 85.5 C-63.26923229 80.1794838 -63.78211986 74.77637921 -63 69 C-59.44406162 63.60478315 -52.75466788 60.69663181 -47 58 C-46.34 58 -45.68 58 -45 58 C-44.97873047 56.17275391 -44.97873047 56.17275391 -44.95703125 54.30859375 C-44.91010251 52.68485927 -44.86185529 51.06116253 -44.8125 49.4375 C-44.80669922 48.63763672 -44.80089844 47.83777344 -44.79492188 47.01367188 C-44.57649432 41.06758833 -43.15977563 37.31193443 -39 33 C-37.04296875 31.57421875 -37.04296875 31.57421875 -35.1875 30.6875 C-31.68747718 28.68935264 -29.62472465 26.51884883 -27.1875 23.3125 C-20.04424957 13.9413352 -10.54757044 5.42027926 0 0 Z " fill="#FEFCFC" transform="translate(88,20)"/>
<path d="M0 0 C0.75 1.625 0.75 1.625 1 4 C-1.28157481 8.29989099 -3.45600581 11.14109329 -8 13 C-10.72145101 13.22805455 -13.259512 13.13934685 -16 13 C-16.3125 10.3125 -16.3125 10.3125 -16 7 C-11.09204941 1.00139373 -7.62456646 -0.29325256 0 0 Z " fill="#E65A34" transform="translate(74,65)"/>
</svg>
